B.sfdir
StartChar: exclam
Encoding: 33 33 4
Width: 346
VWidth: 1754
Flags: W
LayerCount: 2
Fore
SplineSet
238 690 m 1,0,-1
 214 264 l 1,1,-1
 137 264 l 1,2,-1
 108 690 l 1,3,-1
 108 1000 l 1,4,-1
 238 1000 l 1,5,-1
 238 690 l 1,0,-1
242 53 m 0,6,7
 242 24 242 24 223 5 c 128,-1,8
 204 -14 204 -14 175 -14 c 0,9,10
 148 -14 148 -14 128 5 c 128,-1,11
 108 24 108 24 108 53 c 0,12,13
 108 79 108 79 128.5 99.5 c 128,-1,14
 149 120 149 120 175 120 c 0,15,16
 204 120 204 120 223 100 c 128,-1,17
 242 80 242 80 242 53 c 0,6,7
EndSplineSet
EndChar
StartChar: quotedbl
Encoding: 34 34 5
Width: 358
Flags: W
LayerCount: 2
Fore
SplineSet
295 584 m 1,0,-1
 276 350 l 1,1,-1
 231 350 l 1,2,-1
 213 584 l 1,3,-1
 295 584 l 1,0,-1
145 584 m 1,4,-1
 127 350 l 1,5,-1
 82 350 l 1,6,-1
 63 584 l 1,7,-1
 145 584 l 1,4,-1
EndSplineSet
EndChar
StartChar: numbersign
Encoding: 35 35 6
Width: 462
Flags: W
LayerCount: 2
Fore
SplineSet
416 397 m 1,0,-1
 410 332 l 1,1,-1
 336 332 l 1,2,-1
 328 252 l 1,3,-1
 401 252 l 1,4,-1
 395 188 l 1,5,-1
 322 188 l 1,6,-1
 301 0 l 1,7,-1
 238 0 l 1,8,-1
 256 188 l 1,9,-1
 184 188 l 1,10,-1
 164 0 l 1,11,-1
 98 0 l 1,12,-1
 119 188 l 1,13,-1
 47 188 l 1,14,-1
 53 252 l 1,15,-1
 127 252 l 1,16,-1
 135 332 l 1,17,-1
 61 332 l 1,18,-1
 68 397 l 1,19,-1
 141 397 l 1,20,-1
 160 584 l 1,21,-1
 225 584 l 1,22,-1
 207 397 l 1,23,-1
 279 397 l 1,24,-1
 297 584 l 1,25,-1
 362 584 l 1,26,-1
 344 397 l 1,27,-1
 416 397 l 1,0,-1
272 332 m 1,28,-1
 201 332 l 1,29,-1
 190 252 l 1,30,-1
 262 252 l 1,31,-1
 272 332 l 1,28,-1
EndSplineSet
EndChar
StartChar: dollar
Encoding: 36 36 7
Width: 311
Flags: W
LayerCount: 2
Fore
SplineSet
283 125 m 0,0,1
 283 76 283 76 258 37.5 c 128,-1,2
 233 -1 233 -1 203 -6 c 1,3,-1
 203 -76 l 1,4,-1
 125 -76 l 1,5,-1
 125 -8 l 1,6,7
 83 -3 83 -3 57.5 37 c 128,-1,8
 32 77 32 77 29 145 c 1,9,-1
 106 145 l 1,10,11
 106 117 106 117 111 102 c 1,12,13
 120 66 120 66 160 66 c 0,14,15
 182 66 182 66 194.5 81.5 c 128,-1,16
 207 97 207 97 207 125 c 0,17,18
 207 193 207 193 143 272 c 0,19,20
 131 286 131 286 118.5 300.5 c 128,-1,21
 106 315 106 315 99 323.5 c 128,-1,22
 92 332 92 332 90 334 c 0,23,24
 43 392 43 392 43 457 c 0,25,26
 43 510 43 510 64 546.5 c 128,-1,27
 85 583 85 583 125 590 c 1,28,-1
 125 645 l 1,29,-1
 203 645 l 1,30,-1
 203 592 l 1,31,32
 237 586 237 586 257.5 551 c 128,-1,33
 278 516 278 516 283 457 c 1,34,-1
 207 457 l 1,35,36
 204 518 204 518 166 518 c 0,37,38
 121 518 121 518 121 455 c 0,39,40
 121 416 121 416 162 375 c 1,41,42
 210 320 210 320 225.5 299.5 c 128,-1,43
 241 279 241 279 254 252 c 0,44,45
 283 192 283 192 283 125 c 0,0,1
EndSplineSet
EndChar
StartChar: ampersand
Encoding: 38 38 8
Width: 452
Flags: W
LayerCount: 2
Fore
SplineSet
436 0 m 1,0,-1
 344 0 l 1,1,-1
 315 49 l 1,2,3
 286 17 286 17 257 3.5 c 128,-1,4
 228 -10 228 -10 188 -10 c 0,5,6
 118 -10 118 -10 76 35 c 1,7,8
 29 82 29 82 29 160 c 0,9,10
 29 223 29 223 68 274 c 1,11,12
 87 301 87 301 131 340 c 1,13,14
 115 372 115 372 98 401 c 1,15,16
 82 432 82 432 82 471 c 0,17,18
 82 525 82 525 115.5 559.5 c 128,-1,19
 149 594 149 594 201 594 c 0,20,21
 252 594 252 594 283.5 560 c 128,-1,22
 315 526 315 526 315 471 c 0,23,24
 315 429 315 429 296.5 398.5 c 128,-1,25
 278 368 278 368 229 330 c 1,26,-1
 315 193 l 1,27,28
 328 244 328 244 328 291 c 1,29,-1
 403 291 l 1,30,31
 402 232 402 232 394.5 201.5 c 128,-1,32
 387 171 387 171 362 115 c 1,33,-1
 436 0 l 1,0,-1
240 471 m 0,34,35
 240 520 240 520 201 520 c 0,36,37
 181 520 181 520 168.5 507.5 c 128,-1,38
 156 495 156 495 156 475 c 0,39,40
 156 449 156 449 190 389 c 1,41,42
 240 436 240 436 240 471 c 0,34,35
274 115 m 1,43,-1
 172 281 l 1,44,45
 111 226 111 226 111 164 c 0,46,47
 111 124 111 124 135.5 96 c 128,-1,48
 160 68 160 68 195 68 c 0,49,50
 220 68 220 68 237 78 c 128,-1,51
 254 88 254 88 274 115 c 1,43,-1
EndSplineSet
EndChar
StartChar: quotesingle
Encoding: 39 39 9
Width: 308
VWidth: 1754
Flags: W
LayerCount: 2
Fore
SplineSet
231 911 m 0,0,1
 231 807 231 807 147 738 c 1,2,-1
 108 771 l 1,3,4
 154 810 154 810 164 848 c 1,5,-1
 154 848 l 2,6,7
 121 848 121 848 101 867.5 c 128,-1,8
 81 887 81 887 81 922 c 0,9,10
 81 953 81 953 102 974 c 128,-1,11
 123 995 123 995 154 995 c 0,12,13
 188 995 188 995 209.5 972 c 128,-1,14
 231 949 231 949 231 911 c 0,0,1
EndSplineSet
EndChar
StartChar: parenleft
Encoding: 40 40 10
Width: 251
Flags: W
LayerCount: 2
Fore
SplineSet
223 0 m 1,0,-1
 147 0 l 1,1,2
 47 122 47 122 47 293 c 0,3,4
 47 461 47 461 147 584 c 1,5,-1
 223 584 l 1,6,7
 186 535 186 535 170 502 c 1,8,9
 123 419 123 419 123 291 c 0,10,11
 123 175 123 175 174 78 c 1,12,13
 184 54 184 54 223 0 c 1,0,-1
EndSplineSet
EndChar
StartChar: parenright
Encoding: 41 41 11
Width: 429
VWidth: 1754
Flags: W
LayerCount: 2
Fore
SplineSet
351 498 m 0,0,1
 351 356 351 356 313.5 237 c 128,-1,2
 276 118 276 118 178 0 c 1,3,-1
 50 0 l 1,4,5
 113 87 113 87 140 144 c 1,6,7
 221 286 221 286 221 498 c 0,8,9
 221 642 221 642 182.5 758 c 128,-1,10
 144 874 144 874 50 1000 c 1,11,-1
 178 1000 l 1,12,13
 351 794 351 794 351 498 c 0,0,1
EndSplineSet
EndChar
StartChar: asterisk
Encoding: 42 42 12
Width: 397
Flags: W
LayerCount: 2
Fore
SplineSet
330 440 m 1,0,1
 266 424 266 424 231 416 c 1,2,3
 242 406 242 406 258.5 386.5 c 128,-1,4
 275 367 275 367 286 352 c 2,5,-1
 297 338 l 1,6,-1
 238 293 l 1,7,8
 192 346 192 346 178 375 c 1,9,10
 171 362 171 362 156 341.5 c 128,-1,11
 141 321 141 321 130 307 c 2,12,-1
 119 293 l 1,13,-1
 59 340 l 1,14,15
 92 387 92 387 123 418 c 1,16,17
 108 421 108 421 83.5 426.5 c 128,-1,18
 59 432 59 432 42.5 436 c 128,-1,19
 26 440 26 440 25 440 c 2,20,-1
 47 514 l 1,21,-1
 53 512 l 2,22,23
 59 511 59 511 69.5 507.5 c 128,-1,24
 80 504 80 504 92.5 500.5 c 128,-1,25
 105 497 105 497 119 491.5 c 128,-1,26
 133 486 133 486 143 481 c 1,27,28
 140 497 140 497 139 522.5 c 128,-1,29
 138 548 138 548 138 566 c 2,30,-1
 139 584 l 1,31,-1
 215 584 l 1,32,33
 217 514 217 514 211 481 c 1,34,35
 225 487 225 487 249 495 c 128,-1,36
 273 503 273 503 290 508 c 2,37,-1
 307 512 l 1,38,-1
 330 440 l 1,0,1
EndSplineSet
EndChar
StartChar: plus
Encoding: 43 43 13
Width: 623
VWidth: 1754
Flags: W
LayerCount: 2
Fore
SplineSet
593 428 m 1,0,-1
 375 428 l 1,1,-1
 375 211 l 1,2,-1
 245 211 l 1,3,-1
 245 428 l 1,4,-1
 31 428 l 1,5,-1
 31 558 l 1,6,-1
 245 558 l 1,7,-1
 245 773 l 1,8,-1
 375 773 l 1,9,-1
 375 558 l 1,10,-1
 593 558 l 1,11,-1
 593 428 l 1,0,-1
EndSplineSet
EndChar
StartChar: comma
Encoding: 44 44 14
Width: 308
VWidth: 1754
Flags: W
LayerCount: 2
Fore
SplineSet
231 57 m 0,0,1
 231 -47 231 -47 147 -116 c 1,2,-1
 108 -84 l 1,3,4
 154 -45 154 -45 164 -7 c 1,5,-1
 154 -7 l 2,6,7
 121 -7 121 -7 101 13 c 128,-1,8
 81 33 81 33 81 67 c 0,9,10
 81 98 81 98 102 119 c 128,-1,11
 123 140 123 140 154 140 c 0,12,13
 188 140 188 140 209.5 117.5 c 128,-1,14
 231 95 231 95 231 57 c 0,0,1
EndSplineSet
EndChar
StartChar: hyphen
Encoding: 45 45 15
AltUni2: 0000ad.ffffffff.0
Width: 219
Flags: W
LayerCount: 2
Fore
SplineSet
201 236 m 1,0,-1
 18 236 l 1,1,-1
 18 311 l 1,2,-1
 201 311 l 1,3,-1
 201 236 l 1,0,-1
EndSplineSet
EndChar
StartChar: period
Encoding: 46 46 16
Width: 180
Flags: W
LayerCount: 2
Fore
SplineSet
133 39 m 128,-1,1
 133 20 133 20 121 8 c 128,-1,2
 109 -4 109 -4 90 -4 c 128,-1,3
 71 -4 71 -4 59 8 c 128,-1,4
 47 20 47 20 47 39 c 128,-1,5
 47 58 47 58 59 70 c 128,-1,6
 71 82 71 82 90 82 c 128,-1,7
 109 82 109 82 121 70 c 128,-1,0
 133 58 133 58 133 39 c 128,-1,1
EndSplineSet
EndChar
StartChar: slash
Encoding: 47 47 17
Width: 414
Flags: W
LayerCount: 2
Fore
SplineSet
414 586 m 1,0,-1
 76 0 l 1,1,-1
 0 0 l 1,2,-1
 338 586 l 1,3,-1
 414 586 l 1,0,-1
EndSplineSet
Substitution2: "'frac' Diagonal Fractions in Latin lookup 1 subtable" fraction
EndChar
StartChar: zero
Encoding: 48 48 18
Width: 362
Flags: W
LayerCount: 2
Fore
SplineSet
318 293 m 0,0,1
 318 287 318 287 317.5 261 c 128,-1,2
 317 235 317 235 317 223.5 c 128,-1,3
 317 212 317 212 315 185.5 c 128,-1,4
 313 159 313 159 310.5 144.5 c 128,-1,5
 308 130 308 130 303 106.5 c 128,-1,6
 298 83 298 83 291.5 69.5 c 128,-1,7
 285 56 285 56 275 39 c 128,-1,8
 265 22 265 22 252 13.5 c 128,-1,9
 239 5 239 5 221.5 -1.5 c 128,-1,10
 204 -8 204 -8 183 -8 c 0,11,12
 154 -8 154 -8 132 3.5 c 128,-1,13
 110 15 110 15 95.5 30 c 128,-1,14
 81 45 81 45 71 73 c 128,-1,15
 61 101 61 101 56 121.5 c 128,-1,16
 51 142 51 142 48.5 177.5 c 128,-1,17
 46 213 46 213 46 229.5 c 128,-1,18
 46 246 46 246 46 278 c 0,19,20
 46 288 46 288 46 293 c 0,21,22
 46 328 46 328 47 351.5 c 128,-1,23
 48 375 48 375 51.5 415.5 c 128,-1,24
 55 456 55 456 64 483 c 128,-1,25
 73 510 73 510 87.5 537.5 c 128,-1,26
 102 565 102 565 126.5 579.5 c 128,-1,27
 151 594 151 594 183 594 c 0,28,29
 211 594 211 594 233 583 c 128,-1,30
 255 572 255 572 269 557 c 128,-1,31
 283 542 283 542 293 514 c 128,-1,32
 303 486 303 486 308 466 c 128,-1,33
 313 446 313 446 315.5 410.5 c 128,-1,34
 318 375 318 375 318 358.5 c 128,-1,35
 318 342 318 342 318 308 c 0,36,37
 318 298 318 298 318 293 c 0,0,1
241 293 m 2,38,-1
 241 318 l 1,39,40
 242 342 242 342 241.5 356 c 128,-1,41
 241 370 241 370 239.5 397.5 c 128,-1,42
 238 425 238 425 234 442.5 c 128,-1,43
 230 460 230 460 224 479 c 128,-1,44
 218 498 218 498 207.5 508 c 128,-1,45
 197 518 197 518 183 518 c 0,46,47
 120 516 120 516 122 304 c 0,48,49
 122 296 122 296 122 293 c 0,50,51
 122 165 122 165 137 117 c 0,52,53
 152 68 152 68 183 68 c 0,54,55
 194 68 194 68 202.5 74 c 128,-1,56
 211 80 211 80 217 92 c 128,-1,57
 223 104 223 104 227.5 116.5 c 128,-1,58
 232 129 232 129 234.5 148 c 128,-1,59
 237 167 237 167 238.5 181.5 c 128,-1,60
 240 196 240 196 240.5 216 c 128,-1,61
 241 236 241 236 241 247 c 128,-1,62
 241 258 241 258 241 274.5 c 128,-1,63
 241 291 241 291 241 293 c 2,38,-1
EndSplineSet
Substitution2: "'sinf' Scientific Inferiors in Latin lookup 0 subtable" uni2080
EndChar
StartChar: one
Encoding: 49 49 19
Width: 212
Flags: W
LayerCount: 2
Fore
SplineSet
150 0 m 1,0,-1
 76 0 l 1,1,-1
 76 502 l 1,2,-1
 29 502 l 1,3,-1
 29 547 l 1,4,5
 66 554 66 554 96 584 c 1,6,-1
 150 584 l 1,7,-1
 150 0 l 1,0,-1
EndSplineSet
Substitution2: "'sinf' Scientific Inferiors in Latin lookup 0 subtable" uni2081
EndChar
StartChar: two
Encoding: 50 50 20
Width: 309
Flags: W
LayerCount: 2
Fore
SplineSet
281 459 m 0,0,1
 281 425 281 425 268.5 396 c 128,-1,2
 256 367 256 367 217 309 c 1,3,4
 155 211 155 211 129 147 c 0,5,6
 116 117 116 117 113 76 c 1,7,-1
 270 76 l 1,8,-1
 270 0 l 1,9,-1
 29 0 l 1,10,11
 31 107 31 107 57.5 181.5 c 128,-1,12
 84 256 84 256 154 350 c 0,13,14
 205 419 205 419 205 459 c 0,15,16
 205 520 205 520 156 520 c 0,17,18
 134 520 134 520 120 506.5 c 128,-1,19
 106 493 106 493 104 471 c 1,20,-1
 29 471 l 1,21,22
 32 525 32 525 67 559.5 c 128,-1,23
 102 594 102 594 156 594 c 0,24,25
 212 594 212 594 246.5 556.5 c 128,-1,26
 281 519 281 519 281 459 c 0,0,1
EndSplineSet
Substitution2: "'sinf' Scientific Inferiors in Latin lookup 0 subtable" uni2082
EndChar
StartChar: three
Encoding: 51 51 21
Width: 507
VWidth: 1754
Flags: W
LayerCount: 2
Fore
SplineSet
459 281 m 0,0,1
 459 125 459 125 399 50 c 1,2,3
 342 -17 342 -17 234.5 -17 c 128,-1,4
 127 -17 127 -17 63 87 c 1,5,6
 30 137 30 137 31 187 c 1,7,-1
 161 187 l 1,8,9
 164 154 164 154 185 133.5 c 128,-1,10
 206 113 206 113 238 113 c 0,11,12
 288 113 288 113 309.5 151.5 c 128,-1,13
 331 190 331 190 331 281 c 0,14,15
 331 399 331 399 307.5 440 c 128,-1,16
 284 481 284 481 221 481 c 2,17,-1
 178 481 l 1,18,-1
 178 610 l 1,19,-1
 211 610 l 2,20,21
 264 610 264 610 284.5 643.5 c 128,-1,22
 305 677 305 677 305 764 c 0,23,24
 305 887 305 887 228 887 c 0,25,26
 166 887 166 887 161 820 c 1,27,-1
 31 820 l 1,28,29
 36 912 36 912 89 964.5 c 128,-1,30
 142 1017 142 1017 228 1017 c 0,31,32
 435 1017 435 1017 435 764 c 0,33,34
 435 641 435 641 382 546 c 1,35,36
 420 508 420 508 432 485 c 1,37,38
 459 418 459 418 459 281 c 0,0,1
EndSplineSet
Substitution2: "'sinf' Scientific Inferiors in Latin lookup 0 subtable" uni2083
EndChar
StartChar: four
Encoding: 52 52 22
Width: 623
VWidth: 1754
Flags: W
LayerCount: 2
Fore
SplineSet
543 248 m 1,0,-1
 492 248 l 1,1,-1
 492 0 l 1,2,-1
 365 0 l 1,3,-1
 365 248 l 1,4,-1
 50 248 l 1,5,-1
 50 382 l 1,6,-1
 355 1000 l 1,7,-1
 492 1000 l 1,8,-1
 492 368 l 1,9,-1
 543 368 l 1,10,-1
 543 248 l 1,0,-1
365 368 m 1,11,-1
 365 757 l 1,12,-1
 175 368 l 1,13,-1
 365 368 l 1,11,-1
EndSplineSet
Substitution2: "'sinf' Scientific Inferiors in Latin lookup 0 subtable" uni2084
EndChar
StartChar: five
Encoding: 53 53 23
Width: 327
Flags: W
LayerCount: 2
Fore
SplineSet
297 231 m 0,0,1
 297 143 297 143 260 70 c 1,2,3
 216 -10 216 -10 135 -10 c 0,4,5
 89 -10 89 -10 47 16 c 1,6,-1
 86 82 l 1,7,8
 113 66 113 66 135 66 c 0,9,10
 177 66 177 66 197 121 c 1,11,12
 221 178 221 178 221 244 c 0,13,14
 221 278 221 278 208 297.5 c 128,-1,15
 195 317 195 317 172 317 c 0,16,17
 152 317 152 317 131 293 c 1,18,-1
 55 301 l 1,19,-1
 66 584 l 1,20,-1
 281 584 l 1,21,-1
 281 508 l 1,22,-1
 137 508 l 1,23,-1
 135 389 l 1,24,25
 167 393 167 393 174 393 c 0,26,27
 237 393 237 393 270 340 c 1,28,29
 297 294 297 294 297 231 c 0,0,1
EndSplineSet
Substitution2: "'sinf' Scientific Inferiors in Latin lookup 0 subtable" uni2085
EndChar
StartChar: six
Encoding: 54 54 24
Width: 315
Flags: W
LayerCount: 2
Fore
SplineSet
268 170 m 0,0,1
 268 59 268 59 221 18 c 0,2,3
 190 -10 190 -10 141 -10 c 0,4,5
 81 -10 81 -10 49.5 34.5 c 128,-1,6
 18 79 18 79 18 164 c 0,7,8
 18 427 18 427 227 594 c 1,9,-1
 268 530 l 1,10,11
 174 455 174 455 129 344 c 1,12,13
 197 365 197 365 236 303 c 0,14,15
 268 251 268 251 268 170 c 0,0,1
193 180 m 0,16,17
 193 270 193 270 143 270 c 0,18,19
 117 270 117 270 105.5 246.5 c 128,-1,20
 94 223 94 223 94 170 c 0,21,22
 94 104 94 104 111 84 c 0,23,24
 125 66 125 66 143 66 c 0,25,26
 167 66 167 66 180 88 c 1,27,28
 193 118 193 118 193 180 c 0,16,17
EndSplineSet
Substitution2: "'sinf' Scientific Inferiors in Latin lookup 0 subtable" uni2086
EndChar
StartChar: seven
Encoding: 55 55 25
Width: 327
Flags: W
LayerCount: 2
Fore
SplineSet
281 508 m 1,0,1
 223 390 223 390 198 277 c 128,-1,2
 173 164 173 164 168 0 c 1,3,-1
 92 0 l 1,4,5
 101 307 101 307 205 508 c 1,6,-1
 29 508 l 1,7,-1
 29 584 l 1,8,-1
 281 584 l 1,9,-1
 281 508 l 1,0,1
EndSplineSet
Substitution2: "'sinf' Scientific Inferiors in Latin lookup 0 subtable" uni2087
EndChar
StartChar: eight
Encoding: 56 56 26
Width: 529
VWidth: 1754
Flags: W
LayerCount: 2
Fore
SplineSet
481 291 m 0,0,1
 481 139 481 139 418 53 c 0,2,3
 367 -17 367 -17 267 -17 c 0,4,5
 140 -17 140 -17 91 91 c 0,6,7
 50 182 50 182 50 291 c 0,8,9
 50 442 50 442 127 540 c 1,10,11
 67 610 67 610 67 733 c 0,12,13
 67 861 67 861 121 939 c 128,-1,14
 175 1017 175 1017 264 1017 c 0,15,16
 356 1017 356 1017 409 940 c 128,-1,17
 462 863 462 863 462 733 c 128,-1,18
 462 603 462 603 404 540 c 1,19,20
 481 442 481 442 481 291 c 0,0,1
334 726 m 0,21,22
 334 887 334 887 267 887 c 0,23,24
 197 887 197 887 197 726 c 0,25,26
 197 592 197 592 267 593 c 0,27,28
 334 592 334 592 334 726 c 0,21,22
351 291 m 0,29,30
 351 462 351 462 267 462 c 0,31,32
 178 462 178 462 178 291 c 0,33,34
 178 113 178 113 267 113 c 0,35,36
 351 113 351 113 351 291 c 0,29,30
EndSplineSet
Substitution2: "'sinf' Scientific Inferiors in Latin lookup 0 subtable" uni2088
EndChar
StartChar: nine
Encoding: 57 57 27
Width: 560
VWidth: 1754
Flags: W
LayerCount: 2
Fore
SplineSet
509 719 m 0,0,1
 509 274 509 274 151 -17 c 1,2,-1
 81 91 l 1,3,4
 244 226 244 226 319 411 c 1,5,6
 312 408 312 408 295 408 c 0,7,8
 196 408 196 408 134 485 c 1,9,10
 81 559 81 559 81 709 c 0,11,12
 81 896 81 896 158 968 c 1,13,14
 221 1018 221 1018 298 1017 c 0,15,16
 401 1017 401 1017 455 941 c 128,-1,17
 509 865 509 865 509 719 c 0,0,1
379 709 m 0,18,19
 379 829 379 829 351 856 c 1,20,21
 330 887 330 887 295 887 c 0,22,23
 250 887 250 887 230.5 841.5 c 128,-1,24
 211 796 211 796 211 695 c 0,25,26
 211 536 211 536 295 536 c 0,27,28
 340 536 340 536 359.5 577 c 128,-1,29
 379 618 379 618 379 709 c 0,18,19
EndSplineSet
Substitution2: "'sinf' Scientific Inferiors in Latin lookup 0 subtable" uni2089
EndChar
StartChar: colon
Encoding: 58 58 28
Width: 145
Flags: W
LayerCount: 2
Fore
SplineSet
115 195 m 128,-1,1
 115 176 115 176 103 164 c 128,-1,2
 91 152 91 152 72 152 c 0,3,4
 54 152 54 152 41.5 164.5 c 128,-1,5
 29 177 29 177 29 195 c 128,-1,6
 29 213 29 213 41.5 225.5 c 128,-1,7
 54 238 54 238 72 238 c 0,8,9
 91 238 91 238 103 226 c 128,-1,0
 115 214 115 214 115 195 c 128,-1,1
115 33 m 0,10,11
 115 15 115 15 102.5 2.5 c 128,-1,12
 90 -10 90 -10 72 -10 c 0,13,14
 55 -10 55 -10 42 3 c 128,-1,15
 29 16 29 16 29 33 c 0,16,17
 29 51 29 51 41.5 63.5 c 128,-1,18
 54 76 54 76 72 76 c 0,19,20
 91 76 91 76 103 64 c 128,-1,21
 115 52 115 52 115 33 c 0,10,11
EndSplineSet
EndChar
StartChar: equal
Encoding: 61 61 29
Width: 623
VWidth: 1754
Flags: W
LayerCount: 2
Fore
SplineSet
593 558 m 1,0,-1
 31 558 l 1,1,-1
 31 687 l 1,2,-1
 593 687 l 1,3,-1
 593 558 l 1,0,-1
593 295 m 1,4,-1
 31 295 l 1,5,-1
 31 425 l 1,6,-1
 593 425 l 1,7,-1
 593 295 l 1,4,-1
EndSplineSet
EndChar
StartChar: question
Encoding: 63 63 30
Width: 620
VWidth: 1754
Flags: W
LayerCount: 2
Fore
SplineSet
572 761 m 1,0,1
 572 698 572 698 550.5 648 c 128,-1,2
 529 598 529 598 498.5 561 c 128,-1,3
 468 524 468 524 436 487 c 128,-1,4
 404 450 404 450 381 394.5 c 128,-1,5
 358 339 358 339 355 271 c 1,6,-1
 238 271 l 1,7,8
 238 363 238 363 269.5 435 c 128,-1,9
 301 507 301 507 338 544.5 c 128,-1,10
 375 582 375 582 406.5 638 c 128,-1,11
 438 694 438 694 438 757 c 0,12,13
 438 819 438 819 405 855 c 128,-1,14
 372 891 372 891 315 891 c 0,15,16
 178 891 178 891 178 716 c 1,17,-1
 50 716 l 1,18,19
 50 858 50 858 115 939.5 c 128,-1,20
 180 1021 180 1021 319 1021 c 0,21,22
 432 1021 432 1021 500.5 949 c 128,-1,23
 569 877 569 877 572 761 c 1,0,1
235 53 m 128,-1,25
 235 82 235 82 254.5 101 c 128,-1,26
 274 120 274 120 301 120 c 0,27,28
 330 120 330 120 349 101 c 128,-1,29
 368 82 368 82 368 53 c 128,-1,30
 368 24 368 24 349.5 5 c 128,-1,31
 331 -14 331 -14 301 -14 c 0,32,33
 274 -14 274 -14 254.5 5 c 128,-1,24
 235 24 235 24 235 53 c 128,-1,25
EndSplineSet
EndChar
StartChar: at
Encoding: 64 64 31
Width: 1163
VWidth: 1754
Flags: W
LayerCount: 2
Fore
SplineSet
1084 576 m 0,0,1
 1084 436 1084 436 1009.5 330 c 128,-1,2
 935 224 935 224 838 224 c 0,3,4
 793 224 793 224 762 248 c 128,-1,5
 731 272 731 272 723 312 c 1,6,7
 656 214 656 214 536 214 c 0,8,9
 444 214 444 214 383 281.5 c 128,-1,10
 322 349 322 349 322 452 c 0,11,12
 322 575 322 575 401 664.5 c 128,-1,13
 480 754 480 754 586 754 c 0,14,15
 694 754 694 754 740 670 c 1,16,-1
 754 740 l 1,17,-1
 870 740 l 1,18,-1
 814 442 l 1,19,20
 804 401 804 401 803 379 c 0,21,22
 803 322 803 322 846 322 c 0,23,24
 894 322 894 322 937.5 401 c 128,-1,25
 981 480 981 480 981 569 c 0,26,27
 981 725 981 725 878.5 820.5 c 128,-1,28
 776 916 776 916 613 916 c 0,29,30
 437 916 437 916 317 793 c 128,-1,31
 197 670 197 670 197 492 c 0,32,33
 197 317 197 317 312 197 c 1,34,35
 425 84 425 84 613 84 c 0,36,37
 771 84 771 84 901 137 c 1,38,-1
 930 31 l 1,39,40
 798 -20 798 -20 617 -21 c 0,41,42
 381 -21 381 -21 238 116 c 0,43,44
 164 186 164 186 122.5 286.5 c 128,-1,45
 81 387 81 387 81 492 c 0,46,47
 81 713 81 713 233 867 c 128,-1,48
 385 1021 385 1021 603 1021 c 0,49,50
 814 1021 814 1021 949 896 c 128,-1,51
 1084 771 1084 771 1084 576 c 0,0,1
706 512 m 0,52,53
 706 565 706 565 676.5 597 c 128,-1,54
 647 629 647 629 603 629 c 0,55,56
 543 629 543 629 499.5 577.5 c 128,-1,57
 456 526 456 526 456 456 c 0,58,59
 456 401 456 401 487.5 367.5 c 128,-1,60
 519 334 519 334 569 334 c 0,61,62
 624 334 624 334 665 388 c 128,-1,63
 706 442 706 442 706 512 c 0,52,53
EndSplineSet
EndChar
StartChar: A
Encoding: 65 65 32
Width: 350
Flags: W
LayerCount: 2
Fore
SplineSet
334 0 m 1,0,-1
 256 0 l 1,1,-1
 223 156 l 1,2,-1
 127 156 l 1,3,-1
 94 0 l 1,4,-1
 18 0 l 1,5,-1
 137 584 l 1,6,-1
 213 584 l 1,7,-1
 334 0 l 1,0,-1
207 231 m 1,8,-1
 176 385 l 1,9,-1
 143 231 l 1,10,-1
 207 231 l 1,8,-1
EndSplineSet
EndChar
StartChar: B
Encoding: 66 66 33
Width: 589
VWidth: 1754
Flags: W
LayerCount: 2
Fore
SplineSet
540 274 m 0,0,1
 540 0 540 0 348 0 c 2,2,-1
 108 0 l 1,3,-1
 108 1000 l 1,4,-1
 291 1000 l 2,5,6
 421 1000 421 1000 471.5 942 c 128,-1,7
 522 884 522 884 522 733 c 0,8,9
 522 606 522 606 473 529 c 1,10,11
 512 479 512 479 519 442 c 1,12,13
 540 384 540 384 540 274 c 0,0,1
392 733 m 0,14,15
 392 807 392 807 373.5 838.5 c 128,-1,16
 355 870 355 870 308 870 c 2,17,-1
 235 870 l 1,18,-1
 235 596 l 1,19,-1
 322 596 l 2,20,21
 363 596 363 596 377.5 625 c 128,-1,22
 392 654 392 654 392 733 c 0,14,15
411 264 m 0,23,24
 411 382 411 382 395 422 c 128,-1,25
 379 462 379 462 331 462 c 2,26,-1
 235 462 l 1,27,-1
 235 130 l 1,28,-1
 334 130 l 2,29,30
 379 130 379 130 395 158.5 c 128,-1,31
 411 187 411 187 411 264 c 0,23,24
EndSplineSet
EndChar
StartChar: C
Encoding: 67 67 34
Width: 588
VWidth: 1754
Flags: W
LayerCount: 2
Fore
SplineSet
508.022 235 m 1,0,1
 508.022 148 508.022 148 494.022 101 c 1,2,3
 482.022 46 482.022 46 433.022 14.5 c 128,-1,4
 384.022 -17 384.022 -17 318.022 -17 c 0,5,6
 167.022 -17 167.022 -17 122.022 116 c 0,7,8
 79.0225 248 79.0225 248 80.0225 498 c 0,9,10
 80.0225 664 80.0225 664 103.022 800 c 0,11,12
 124.022 915 124.022 915 172.022 964.5 c 128,-1,13
 220.022 1014 220.022 1014 311.022 1014 c 0,14,15
 397.022 1014 397.022 1014 449.022 963.5 c 128,-1,16
 501.022 913 501.022 913 508.022 820 c 1,17,-1
 378.022 820 l 1,18,19
 373.022 883 373.022 883 314.022 884 c 0,20,21
 251.022 884 251.022 884 230.022 786 c 0,22,23
 209.022 690 209.022 690 210.022 498 c 0,24,25
 210.022 315 210.022 315 230.522 214 c 128,-1,26
 251.022 113 251.022 113 311.022 113 c 0,27,28
 378.022 113 378.022 113 378.022 235 c 1,29,-1
 508.022 235 l 1,0,1
EndSplineSet
EndChar
StartChar: D
Encoding: 68 68 35
Width: 616
VWidth: 1754
Flags: W
LayerCount: 2
Fore
SplineSet
540 502 m 0,0,1
 540 151 540 151 449 50 c 0,2,3
 404 0 404 0 315 0 c 2,4,-1
 108 0 l 1,5,-1
 108 1000 l 1,6,-1
 315 1000 l 2,7,8
 419 1000 419 1000 466 927 c 0,9,10
 509 857 509 857 519 757 c 1,11,12
 540 637 540 637 540 502 c 0,0,1
411 469 m 0,13,14
 411 479 411 479 399 726 c 1,15,16
 390 807 390 807 372.5 838.5 c 128,-1,17
 355 870 355 870 315 870 c 2,18,-1
 235 870 l 1,19,-1
 235 130 l 1,20,-1
 315 130 l 2,21,22
 380 130 380 130 399 235 c 1,23,24
 411 354 411 354 411 469 c 0,13,14
EndSplineSet
EndChar
StartChar: E
Encoding: 69 69 36
Width: 539
VWidth: 1754
Flags: W
LayerCount: 2
Fore
SplineSet
492 0 m 1,0,-1
 108 0 l 1,1,-1
 108 1000 l 1,2,-1
 478 1000 l 1,3,-1
 478 870 l 1,4,-1
 235 870 l 1,5,-1
 235 613 l 1,6,-1
 396 613 l 1,7,-1
 396 481 l 1,8,-1
 235 481 l 1,9,-1
 235 130 l 1,10,-1
 492 130 l 1,11,-1
 492 0 l 1,0,-1
EndSplineSet
EndChar
StartChar: F
Encoding: 70 70 37
Width: 305
Flags: W
LayerCount: 2
Fore
SplineSet
287 508 m 1,0,-1
 137 508 l 1,1,-1
 137 358 l 1,2,-1
 223 358 l 1,3,-1
 223 281 l 1,4,-1
 137 281 l 1,5,-1
 137 0 l 1,6,-1
 63 0 l 1,7,-1
 63 584 l 1,8,-1
 287 584 l 1,9,-1
 287 508 l 1,0,-1
EndSplineSet
EndChar
StartChar: G
Encoding: 71 71 38
Width: 344
Flags: W
LayerCount: 2
Fore
SplineSet
297 133 m 2,0,1
 297 93 297 93 289 57 c 1,2,3
 280 26 280 26 252 8 c 128,-1,4
 224 -10 224 -10 184 -10 c 0,5,6
 98 -10 98 -10 72 68 c 0,7,8
 47 142 47 142 47 293 c 0,9,10
 47 442 47 442 74 516 c 1,11,12
 100 592 100 592 184 592 c 0,13,14
 233 592 233 592 262 562.5 c 128,-1,15
 291 533 291 533 297 479 c 1,16,-1
 223 479 l 1,17,18
 217 516 217 516 186 516 c 0,19,20
 144 516 144 516 135 459 c 0,21,22
 123 388 123 388 123 293 c 0,23,24
 123 207 123 207 133 125 c 1,25,26
 145 66 145 66 182 66 c 0,27,28
 223 66 223 66 223 129 c 2,29,-1
 223 207 l 1,30,-1
 188 207 l 1,31,-1
 188 283 l 1,32,-1
 297 283 l 1,33,-1
 297 133 l 2,0,1
EndSplineSet
EndChar
StartChar: H
Encoding: 72 72 39
Width: 652
VWidth: 1754
Flags: W
LayerCount: 2
Fore
SplineSet
542 0 m 1,0,-1
 417 0 l 1,1,-1
 417 466 l 1,2,-1
 237 466 l 1,3,-1
 237 0 l 1,4,-1
 110 0 l 1,5,-1
 110 1000 l 1,6,-1
 237 1000 l 1,7,-1
 237 596 l 1,8,-1
 417 596 l 1,9,-1
 417 1000 l 1,10,-1
 542 1000 l 1,11,-1
 542 0 l 1,0,-1
EndSplineSet
EndChar
StartChar: I
Encoding: 73 73 40
Width: 202
Flags: W
LayerCount: 2
Fore
SplineSet
137 0 m 1,0,-1
 63 0 l 1,1,-1
 63 584 l 1,2,-1
 137 584 l 1,3,-1
 137 0 l 1,0,-1
EndSplineSet
EndChar
StartChar: J
Encoding: 74 74 41
Width: 585
VWidth: 1754
Flags: W
LayerCount: 2
Fore
SplineSet
478 228 m 2,0,1
 478 -17 478 -17 267 -17 c 0,2,3
 178 -17 178 -17 113 34.5 c 128,-1,4
 48 86 48 86 31 171 c 1,5,-1
 161 190 l 1,6,7
 190 113 190 113 264 113 c 0,8,9
 333 113 333 113 348 178 c 0,10,11
 351 195 351 195 351 248 c 2,12,-1
 351 1000 l 1,13,-1
 478 1000 l 1,14,-1
 478 228 l 2,0,1
EndSplineSet
EndChar
StartChar: K
Encoding: 75 75 42
Width: 607
VWidth: 1754
Flags: W
LayerCount: 2
Fore
SplineSet
557 0 m 1,0,-1
 420 0 l 1,1,-1
 286 473 l 1,2,-1
 237 375 l 1,3,-1
 237 0 l 1,4,-1
 110 0 l 1,5,-1
 110 1000 l 1,6,-1
 237 1000 l 1,7,-1
 237 680 l 1,8,-1
 394 1000 l 1,9,-1
 542 1000 l 1,10,-1
 377 656 l 1,11,-1
 557 0 l 1,0,-1
EndSplineSet
EndChar
StartChar: L
Encoding: 76 76 43
Width: 305
Flags: W
LayerCount: 2
Fore
SplineSet
287 0 m 1,0,-1
 63 0 l 1,1,-1
 63 584 l 1,2,-1
 137 584 l 1,3,-1
 137 68 l 1,4,-1
 287 68 l 1,5,-1
 287 0 l 1,0,-1
EndSplineSet
EndChar
StartChar: M
Encoding: 77 77 44
Width: 710
VWidth: 1754
Flags: W
LayerCount: 2
Fore
SplineSet
603 0 m 1,0,-1
 478 0 l 1,1,-1
 478 593 l 1,2,-1
 358 218 l 1,3,-1
 235 593 l 1,4,-1
 235 0 l 1,5,-1
 108 0 l 1,6,-1
 108 1000 l 1,7,-1
 235 1000 l 1,8,-1
 358 646 l 1,9,-1
 478 1000 l 1,10,-1
 603 1000 l 1,11,-1
 603 0 l 1,0,-1
EndSplineSet
EndChar
StartChar: N
Encoding: 78 78 45
Width: 647
VWidth: 1754
Flags: W
LayerCount: 2
Fore
SplineSet
540 0 m 1,0,-1
 432 0 l 1,1,-1
 235 593 l 1,2,-1
 235 0 l 1,3,-1
 108 0 l 1,4,-1
 108 1000 l 1,5,-1
 235 1000 l 1,6,-1
 415 502 l 1,7,-1
 415 1000 l 1,8,-1
 540 1000 l 1,9,-1
 540 0 l 1,0,-1
EndSplineSet
EndChar
StartChar: O
Encoding: 79 79 46
Width: 620
VWidth: 1754
Flags: W
LayerCount: 2
Fore
SplineSet
541 502 m 0,0,1
 541 276 541 276 517 180 c 0,2,3
 467 -17 467 -17 310 -17 c 0,4,5
 262 -17 262 -17 223.5 2.5 c 128,-1,6
 185 22 185 22 161 48 c 128,-1,7
 137 74 137 74 120 122.5 c 128,-1,8
 103 171 103 171 95 204.5 c 128,-1,9
 87 238 87 238 83 300.5 c 128,-1,10
 79 363 79 363 79 389 c 128,-1,11
 79 415 79 415 79 471 c 0,12,13
 79 492 79 492 79 502 c 0,14,15
 79 511 79 511 79 528 c 0,16,17
 79 591 79 591 80 628 c 128,-1,18
 81 665 81 665 86.5 731.5 c 128,-1,19
 92 798 92 798 107 839 c 128,-1,20
 122 880 122 880 146 924.5 c 128,-1,21
 170 969 170 969 212 991.5 c 128,-1,22
 254 1014 254 1014 310 1014 c 0,23,24
 358 1014 358 1014 395.5 995 c 128,-1,25
 433 976 433 976 457 949.5 c 128,-1,26
 481 923 481 923 498.5 876 c 128,-1,27
 516 829 516 829 524.5 794 c 128,-1,28
 533 759 533 759 537 699 c 128,-1,29
 541 639 541 639 541 610.5 c 128,-1,30
 541 582 541 582 541 528 c 0,31,32
 541 511 541 511 541 502 c 0,0,1
409 502 m 0,33,34
 409 550 409 550 406.5 598.5 c 128,-1,35
 404 647 404 647 395.5 720 c 128,-1,36
 387 793 387 793 365 838.5 c 128,-1,37
 343 884 343 884 310 884 c 0,38,39
 291 884 291 884 275.5 873.5 c 128,-1,40
 260 863 260 863 250 843.5 c 128,-1,41
 240 824 240 824 232 801 c 128,-1,42
 224 778 224 778 220 747 c 128,-1,43
 216 716 216 716 213.5 690.5 c 128,-1,44
 211 665 211 665 210 631.5 c 128,-1,45
 209 598 209 598 209 579 c 128,-1,46
 209 560 209 560 209 533.5 c 128,-1,47
 209 507 209 507 209 502 c 0,48,49
 209 499 209 499 209 472 c 128,-1,50
 209 445 209 445 209 425.5 c 128,-1,51
 209 406 209 406 210 371.5 c 128,-1,52
 211 337 211 337 213.5 311.5 c 128,-1,53
 216 286 216 286 220 253.5 c 128,-1,54
 224 221 224 221 232 198 c 128,-1,55
 240 175 240 175 250 154.5 c 128,-1,56
 260 134 260 134 275.5 123.5 c 128,-1,57
 291 113 291 113 310 113 c 128,-1,58
 329 113 329 113 343.5 123.5 c 128,-1,59
 358 134 358 134 368.5 155 c 128,-1,60
 379 176 379 176 386.5 198.5 c 128,-1,61
 394 221 394 221 398.5 253.5 c 128,-1,62
 403 286 403 286 405.5 311.5 c 128,-1,63
 408 337 408 337 408.5 371.5 c 128,-1,64
 409 406 409 406 409 425 c 128,-1,65
 409 444 409 444 409 471.5 c 128,-1,66
 409 499 409 499 409 502 c 0,33,34
EndSplineSet
EndChar
StartChar: P
Encoding: 80 80 47
Width: 331
Flags: W
LayerCount: 2
Fore
SplineSet
315 414 m 0,0,1
 315 342 315 342 277.5 298 c 128,-1,2
 240 254 240 254 178 254 c 2,3,-1
 137 254 l 1,4,-1
 137 0 l 1,5,-1
 63 0 l 1,6,-1
 63 584 l 1,7,-1
 178 584 l 2,8,9
 232 584 232 584 260 559 c 1,10,11
 315 514 315 514 315 414 c 0,0,1
240 414 m 0,12,13
 240 508 240 508 178 508 c 2,14,-1
 137 508 l 1,15,-1
 137 330 l 1,16,-1
 178 330 l 2,17,18
 212 330 212 330 226 349 c 128,-1,19
 240 368 240 368 240 414 c 0,12,13
EndSplineSet
EndChar
StartChar: Q
Encoding: 81 81 48
Width: 620
VWidth: 1754
Flags: W
LayerCount: 2
Fore
SplineSet
540 502 m 0,0,1
 540 375 540 375 522 239.5 c 128,-1,2
 504 104 504 104 462 63 c 1,3,-1
 516 -14 l 1,4,-1
 435 -67 l 1,5,-1
 392 0 l 1,6,7
 351 -14 351 -14 312 -14 c 0,8,9
 235 -14 235 -14 188.5 25.5 c 128,-1,10
 142 65 142 65 116 154 c 0,11,12
 83 265 83 265 84 502 c 0,13,14
 84 752 84 752 123 862 c 0,15,16
 178 1014 178 1014 312 1014 c 0,17,18
 360 1014 360 1014 397.5 992.5 c 128,-1,19
 435 971 435 971 458 943 c 128,-1,20
 481 915 481 915 498.5 863.5 c 128,-1,21
 516 812 516 812 523.5 774.5 c 128,-1,22
 531 737 531 737 535.5 674.5 c 128,-1,23
 540 612 540 612 540 584.5 c 128,-1,24
 540 557 540 557 540 502 c 0,0,1
411 502 m 0,25,26
 411 884 411 884 312 884 c 0,27,28
 211 884 211 884 211 502 c 0,29,30
 211 497 211 497 210 457.5 c 128,-1,31
 209 418 209 418 209 389.5 c 128,-1,32
 209 361 209 361 211.5 316 c 128,-1,33
 214 271 214 271 221 239 c 128,-1,34
 228 207 228 207 239 175.5 c 128,-1,35
 250 144 250 144 269.5 127.5 c 128,-1,36
 289 111 289 111 315 113 c 1,37,-1
 271 178 l 1,38,-1
 351 231 l 1,39,-1
 382 187 l 1,40,41
 391 214 391 214 396 257 c 0,42,43
 411 384 411 384 411 502 c 0,25,26
EndSplineSet
EndChar
StartChar: R
Encoding: 82 82 49
Width: 589
VWidth: 1754
Flags: W
LayerCount: 2
Fore
SplineSet
540 719 m 0,0,1
 540 635 540 635 516 584 c 128,-1,2
 492 533 492 533 435 498 c 1,3,-1
 536 0 l 1,4,-1
 408 0 l 1,5,-1
 295 466 l 1,6,-1
 235 466 l 1,7,-1
 235 0 l 1,8,-1
 108 0 l 1,9,-1
 108 1000 l 1,10,-1
 305 1000 l 2,11,12
 540 1000 540 1000 540 719 c 0,0,1
411 723 m 0,13,14
 411 809 411 809 387 839.5 c 128,-1,15
 363 870 363 870 298 870 c 2,16,-1
 235 870 l 1,17,-1
 235 596 l 1,18,-1
 319 596 l 2,19,20
 372 596 372 596 391.5 624.5 c 128,-1,21
 411 653 411 653 411 723 c 0,13,14
EndSplineSet
EndChar
StartChar: S
Encoding: 83 83 50
Width: 529
VWidth: 1754
Flags: W
LayerCount: 2
Fore
SplineSet
481 214 m 0,0,1
 481 98 481 98 399 27 c 0,2,3
 349 -18 349 -18 271 -17 c 0,4,5
 60 -17 60 -17 50 248 c 1,6,-1
 178 248 l 1,7,8
 178 210 178 210 190 175 c 1,9,10
 205 113 205 113 271 113 c 0,11,12
 309 113 309 113 330 139.5 c 128,-1,13
 351 166 351 166 351 214 c 0,14,15
 351 337 351 337 242 466 c 0,16,17
 187 529 187 529 154 572 c 1,18,19
 73 668 73 668 74 779 c 0,20,21
 74 882 74 882 131 948 c 128,-1,22
 188 1014 188 1014 277 1014 c 0,23,24
 460 1014 460 1014 481 779 c 1,25,-1
 351 779 l 1,26,27
 349 837 349 837 332 862 c 128,-1,28
 315 887 315 887 281 887 c 0,29,30
 204 887 204 887 204 779 c 0,31,32
 204 717 204 717 274 642 c 1,33,34
 356 548 356 548 382.5 513 c 128,-1,35
 409 478 409 478 432 432 c 1,36,37
 481 317 481 317 481 214 c 0,0,1
EndSplineSet
EndChar
StartChar: T
Encoding: 84 84 51
Width: 440
VWidth: 1754
Flags: W
LayerCount: 2
Fore
SplineSet
410 870 m 1,0,-1
 280 870 l 1,1,-1
 280 0 l 1,2,-1
 153 0 l 1,3,-1
 153 870 l 1,4,-1
 30 870 l 1,5,-1
 30 1000 l 1,6,-1
 410 1000 l 1,7,-1
 410 870 l 1,0,-1
EndSplineSet
EndChar
StartChar: U
Encoding: 85 85 52
Width: 647
VWidth: 1754
Flags: W
LayerCount: 2
Fore
SplineSet
540 245 m 2,0,1
 540 147 540 147 509 87 c 0,2,3
 452 -17 452 -17 325 -17 c 0,4,5
 178 -17 178 -17 127 120 c 1,6,7
 108 177 108 177 108 245 c 2,8,-1
 108 1000 l 1,9,-1
 235 1000 l 1,10,-1
 235 228 l 2,11,12
 235 113 235 113 325 113 c 0,13,14
 414 113 414 113 415 228 c 2,15,-1
 415 1000 l 1,16,-1
 540 1000 l 1,17,-1
 540 245 l 2,0,1
EndSplineSet
EndChar
StartChar: V
Encoding: 86 86 53
Width: 309
Flags: W
LayerCount: 2
Fore
SplineSet
291 584 m 1,0,-1
 186 0 l 1,1,-1
 123 0 l 1,2,-1
 18 584 l 1,3,-1
 94 584 l 1,4,-1
 156 252 l 1,5,-1
 215 584 l 1,6,-1
 291 584 l 1,0,-1
EndSplineSet
EndChar
StartChar: W
Encoding: 87 87 54
Width: 407
Flags: W
LayerCount: 2
Fore
SplineSet
389 584 m 1,0,-1
 322 0 l 1,1,-1
 258 0 l 1,2,-1
 203 328 l 1,3,-1
 150 0 l 1,4,-1
 86 0 l 1,5,-1
 18 584 l 1,6,-1
 94 584 l 1,7,-1
 125 313 l 1,8,-1
 172 584 l 1,9,-1
 236 584 l 1,10,-1
 283 313 l 1,11,-1
 313 584 l 1,12,-1
 389 584 l 1,0,-1
EndSplineSet
EndChar
StartChar: X
Encoding: 88 88 55
Width: 569
VWidth: 1754
Flags: W
LayerCount: 2
Fore
SplineSet
519 0 m 1,0,-1
 382 0 l 1,1,-1
 284 301 l 1,2,-1
 187 0 l 1,3,-1
 50 0 l 1,4,-1
 218 512 l 1,5,-1
 57 1000 l 1,6,-1
 197 1000 l 1,7,-1
 284 723 l 1,8,-1
 375 1000 l 1,9,-1
 512 1000 l 1,10,-1
 351 512 l 1,11,-1
 519 0 l 1,0,-1
EndSplineSet
EndChar
StartChar: Y
Encoding: 89 89 56
Width: 598
VWidth: 1754
Flags: W
LayerCount: 2
Fore
SplineSet
568 1000 m 1,0,-1
 364 452 l 1,1,-1
 364 0 l 1,2,-1
 234 0 l 1,3,-1
 234 452 l 1,4,-1
 30 1000 l 1,5,-1
 167 1000 l 1,6,-1
 300 649 l 1,7,-1
 431 1000 l 1,8,-1
 568 1000 l 1,0,-1
EndSplineSet
EndChar
StartChar: Z
Encoding: 90 90 57
Width: 529
VWidth: 1754
Flags: W
LayerCount: 2
Fore
SplineSet
481 0 m 1,0,-1
 50 0 l 1,1,-1
 50 140 l 1,2,-1
 341 870 l 1,3,-1
 74 870 l 1,4,-1
 74 1000 l 1,5,-1
 481 1000 l 1,6,-1
 481 870 l 1,7,-1
 190 140 l 1,8,-1
 481 140 l 1,9,-1
 481 0 l 1,0,-1
EndSplineSet
EndChar
StartChar: grave
Encoding: 96 96 124
Width: 151
Flags: W
LayerCount: 2
Fore
SplineSet
101 480 m 1,0,-1
 58 480 l 1,1,-1
 0 584 l 1,2,-1
 77 584 l 1,3,-1
 101 480 l 1,0,-1
EndSplineSet
EndChar
StartChar: a
Encoding: 97 97 58
Width: 274
Flags: W
LayerCount: 2
Fore
SplineSet
233 0 m 1,0,-1
 166 0 l 1,1,-1
 166 12 l 1,2,3
 151 -6 151 -6 117 -6 c 0,4,5
 74 -6 74 -6 46 36.5 c 128,-1,6
 18 79 18 79 18 143 c 0,7,8
 18 186 18 186 33.5 223.5 c 128,-1,9
 49 261 49 261 83 279.5 c 128,-1,10
 117 298 117 298 160 281 c 1,11,-1
 160 311 l 2,12,13
 160 336 160 336 153 346 c 128,-1,14
 146 356 146 356 127 356 c 0,15,16
 106 356 106 356 86.5 336.5 c 128,-1,17
 67 317 67 317 55 295 c 1,18,-1
 37 387 l 1,19,20
 80 436 80 436 125 436 c 0,21,22
 233 436 233 436 233 285 c 2,23,-1
 233 0 l 1,0,-1
160 102 m 2,24,-1
 160 195 l 1,25,26
 156 209 156 209 127 209 c 0,27,28
 92 209 92 209 92 141 c 0,29,30
 92 99 92 99 100.5 81 c 128,-1,31
 109 63 109 63 131 63 c 0,32,33
 148 63 148 63 154 72 c 128,-1,34
 160 81 160 81 160 102 c 2,24,-1
EndSplineSet
EndChar
StartChar: b
Encoding: 98 98 59
Width: 498
VWidth: 1754
Flags: W
LayerCount: 2
Fore
SplineSet
448 372 m 0,0,1
 448 -17 448 -17 280 -17 c 0,2,3
 232 -17 232 -17 203 27 c 1,4,-1
 203 0 l 1,5,-1
 80 0 l 1,6,-1
 80 940 l 1,7,-1
 206 1017 l 1,8,-1
 206 726 l 1,9,10
 244 743 244 743 276.5 744 c 128,-1,11
 309 745 309 745 332 734 c 128,-1,12
 355 723 355 723 373 700.5 c 128,-1,13
 391 678 391 678 403 651.5 c 128,-1,14
 415 625 415 625 423.5 591 c 128,-1,15
 432 557 432 557 436.5 527.5 c 128,-1,16
 441 498 441 498 443.5 464 c 128,-1,17
 446 430 446 430 447 411.5 c 128,-1,18
 448 393 448 393 448 372 c 0,0,1
321 372 m 0,19,20
 321 514 321 514 309 563.5 c 128,-1,21
 297 613 297 613 259 613 c 0,22,23
 206 613 206 613 206 522 c 2,24,-1
 206 235 l 2,25,26
 206 120 206 120 259 120 c 0,27,28
 298 120 298 120 309.5 176.5 c 128,-1,29
 321 233 321 233 321 372 c 0,19,20
EndSplineSet
EndChar
StartChar: c
Encoding: 99 99 60
Width: 245
Flags: W
LayerCount: 2
Fore
SplineSet
236 104 m 1,0,1
 212 -8 212 -8 137 -8 c 0,2,3
 29 -8 29 -8 29 205 c 0,4,5
 29 246 29 246 30.5 275.5 c 128,-1,6
 32 305 32 305 38.5 337.5 c 128,-1,7
 45 370 45 370 56.5 390 c 128,-1,8
 68 410 68 410 88.5 423 c 128,-1,9
 109 436 109 436 137 436 c 0,10,11
 216 436 216 436 236 326 c 1,12,-1
 168 293 l 1,13,14
 164 356 164 356 137 356 c 0,15,16
 128 356 128 356 121.5 349.5 c 128,-1,17
 115 343 115 343 111.5 331 c 128,-1,18
 108 319 108 319 105.5 306.5 c 128,-1,19
 103 294 103 294 102.5 277.5 c 128,-1,20
 102 261 102 261 101.5 250 c 128,-1,21
 101 239 101 239 101.5 224 c 128,-1,22
 102 209 102 209 102 207 c 0,23,24
 102 61 102 61 139 61 c 1,25,26
 160 64 160 64 168 129 c 1,27,-1
 236 104 l 1,0,1
EndSplineSet
EndChar
StartChar: d
Encoding: 100 100 61
Width: 290
Flags: W
LayerCount: 2
Fore
SplineSet
244 0 m 1,0,-1
 172 0 l 1,1,-1
 172 16 l 1,2,3
 155 -10 155 -10 127 -10 c 0,4,5
 29 -10 29 -10 29 217 c 0,6,7
 29 229 29 229 29.5 240 c 128,-1,8
 30 251 30 251 31.5 271 c 128,-1,9
 33 291 33 291 35.5 308 c 128,-1,10
 38 325 38 325 43 345 c 128,-1,11
 48 365 48 365 55 380.5 c 128,-1,12
 62 396 62 396 72.5 409 c 128,-1,13
 83 422 83 422 96.5 428.5 c 128,-1,14
 110 435 110 435 129 434.5 c 128,-1,15
 148 434 148 434 170 424 c 1,16,-1
 170 549 l 1,17,-1
 244 594 l 1,18,-1
 244 0 l 1,0,-1
170 137 m 2,19,-1
 170 305 l 2,20,21
 170 358 170 358 141 358 c 0,22,23
 118 358 118 358 111 329.5 c 128,-1,24
 104 301 104 301 104 217 c 0,25,26
 104 135 104 135 110.5 102.5 c 128,-1,27
 117 70 117 70 141 70 c 0,28,29
 170 70 170 70 170 137 c 2,19,-1
EndSplineSet
EndChar
StartChar: e
Encoding: 101 101 62
Width: 441
VWidth: 1754
Flags: W
LayerCount: 2
Fore
SplineSet
411 291 m 1,0,-1
 171 291 l 1,1,2
 173 188 173 188 187.5 152 c 128,-1,3
 202 116 202 116 238 116 c 0,4,5
 283 116 283 116 308 211 c 1,6,-1
 389 94 l 1,7,8
 350 -14 350 -14 257 -14 c 0,9,10
 142 -14 142 -14 96 82 c 128,-1,11
 50 178 50 178 50 361 c 0,12,13
 50 548 50 548 91 647.5 c 128,-1,14
 132 747 132 747 235 747 c 0,15,16
 423 747 423 747 411 291 c 1,0,-1
295 421 m 1,17,18
 295 527 295 527 280 568.5 c 128,-1,19
 265 610 265 610 231 610 c 0,20,21
 198 610 198 610 184.5 569 c 128,-1,22
 171 528 171 528 171 421 c 1,23,-1
 295 421 l 1,17,18
EndSplineSet
EndChar
StartChar: f
Encoding: 102 102 63
Width: 165
Flags: W
LayerCount: 2
Fore
SplineSet
154 358 m 1,0,-1
 121 358 l 1,1,-1
 121 0 l 1,2,-1
 47 0 l 1,3,-1
 47 358 l 1,4,-1
 18 358 l 1,5,-1
 18 426 l 1,6,-1
 47 426 l 1,7,-1
 47 520 l 2,8,9
 47 553 47 553 62.5 573.5 c 128,-1,10
 78 594 78 594 104 594 c 0,11,12
 136 594 136 594 152 584 c 1,13,-1
 152 516 l 1,14,15
 148 523 148 523 140.5 525 c 128,-1,16
 133 527 133 527 127 519 c 128,-1,17
 121 511 121 511 121 494 c 2,18,-1
 121 426 l 1,19,-1
 154 426 l 1,20,-1
 154 358 l 1,0,-1
EndSplineSet
EndChar
StartChar: g
Encoding: 103 103 64
Width: 489
VWidth: 1754
Flags: W
LayerCount: 2
Fore
SplineSet
415 -10 m 2,0,1
 415 -113 415 -113 402 -166 c 128,-1,2
 389 -219 389 -219 355 -267 c 0,3,4
 309 -332 309 -332 231 -361 c 1,5,-1
 187 -242 l 1,6,7
 288 -196 288 -196 288 -104 c 2,8,-1
 288 17 l 1,9,10
 266 -17 266 -17 238 -17 c 0,11,12
 50 -17 50 -17 50 355 c 0,13,14
 50 470 50 470 62.5 549.5 c 128,-1,15
 75 629 75 629 118 687 c 128,-1,16
 161 745 161 745 235 747 c 0,17,18
 261 747 261 747 305 713 c 1,19,-1
 305 733 l 1,20,-1
 415 733 l 1,21,-1
 415 -10 l 2,0,1
291 242 m 2,22,-1
 291 522 l 2,23,24
 291 609 291 609 238 610 c 0,25,26
 171 610 171 610 171 355 c 0,27,28
 171 227 171 227 194 158 c 0,29,30
 211 108 211 108 242 108 c 1,31,32
 264 110 264 110 277.5 151 c 128,-1,33
 291 192 291 192 291 242 c 2,22,-1
EndSplineSet
EndChar
StartChar: h
Encoding: 104 104 65
Width: 503
VWidth: 1754
Flags: W
LayerCount: 2
Fore
SplineSet
435 0 m 1,0,-1
 308 0 l 1,1,-1
 308 502 l 2,2,3
 308 564 308 564 298.5 590.5 c 128,-1,4
 289 617 289 617 257 617 c 0,5,6
 207 617 207 617 207 502 c 2,7,-1
 207 0 l 1,8,-1
 81 0 l 1,9,-1
 81 937 l 1,10,-1
 207 1017 l 1,11,-1
 207 719 l 1,12,13
 228 740 228 740 257 747 c 128,-1,14
 286 754 286 754 317 743.5 c 128,-1,15
 348 733 348 733 374.5 707.5 c 128,-1,16
 401 682 401 682 418 629 c 128,-1,17
 435 576 435 576 435 505 c 2,18,-1
 435 0 l 1,0,-1
EndSplineSet
EndChar
StartChar: i
Encoding: 105 105 66
Width: 289
VWidth: 1754
Flags: W
LayerCount: 2
Fore
SplineSet
211 954 m 0,0,1
 211 928 211 928 192 909.5 c 128,-1,2
 173 891 173 891 144 891 c 0,3,4
 118 891 118 891 99.5 909.5 c 128,-1,5
 81 928 81 928 81 958 c 0,6,7
 81 984 81 984 99.5 1002.5 c 128,-1,8
 118 1021 118 1021 147 1021 c 0,9,10
 173 1021 173 1021 192 1002 c 128,-1,11
 211 983 211 983 211 954 c 0,0,1
207 0 m 1,12,-1
 81 0 l 1,13,-1
 81 730 l 1,14,-1
 207 730 l 1,15,-1
 207 0 l 1,12,-1
EndSplineSet
EndChar
StartChar: j
Encoding: 106 106 67
Width: 182
Flags: W
LayerCount: 2
Fore
SplineSet
135 553 m 128,-1,1
 135 538 135 538 124 527 c 128,-1,2
 113 516 113 516 98 516 c 0,3,4
 82 516 82 516 70.5 527 c 128,-1,5
 59 538 59 538 59 555 c 0,6,7
 59 570 59 570 71 581 c 128,-1,8
 83 592 83 592 98 592 c 128,-1,9
 113 592 113 592 124 580 c 128,-1,0
 135 568 135 568 135 553 c 128,-1,1
137 -14 m 2,10,11
 137 -145 137 -145 66 -193 c 1,12,13
 36 -211 36 -211 0 -211 c 1,14,-1
 0 -139 l 1,15,16
 30 -133 30 -133 43 -109 c 1,17,18
 61 -80 61 -80 61 -37 c 2,19,-1
 61 436 l 1,20,-1
 137 436 l 1,21,-1
 137 -14 l 2,10,11
EndSplineSet
EndChar
StartChar: k
Encoding: 107 107 68
Width: 503
VWidth: 1754
Flags: W
LayerCount: 2
Fore
SplineSet
485 0 m 1,0,-1
 355 0 l 1,1,-1
 260 379 l 1,2,-1
 207 277 l 1,3,-1
 207 0 l 1,4,-1
 81 0 l 1,5,-1
 81 940 l 1,6,-1
 207 1017 l 1,7,-1
 207 488 l 1,8,-1
 334 730 l 1,9,-1
 462 730 l 1,10,-1
 351 505 l 1,11,-1
 485 0 l 1,0,-1
EndSplineSet
EndChar
StartChar: l
Encoding: 108 108 69
Width: 226
VWidth: 1754
Flags: W
LayerCount: 2
Fore
SplineSet
206 0 m 1,0,-1
 80 0 l 1,1,-1
 80 940 l 1,2,-1
 206 1017 l 1,3,-1
 206 0 l 1,0,-1
EndSplineSet
EndChar
StartChar: m
Encoding: 109 109 70
Width: 735
VWidth: 1754
Flags: W
LayerCount: 2
Fore
SplineSet
665 0 m 1,0,-1
 535 0 l 1,1,-1
 535 512 l 2,2,3
 535 569 535 569 526.5 593 c 128,-1,4
 518 617 518 617 491 617 c 0,5,6
 460 617 460 617 448.5 598 c 128,-1,7
 437 579 437 579 437 512 c 2,8,-1
 437 0 l 1,9,-1
 307 0 l 1,10,-1
 307 512 l 2,11,12
 307 567 307 567 298.5 590 c 128,-1,13
 290 613 290 613 259 613 c 0,14,15
 226 613 226 613 216 594.5 c 128,-1,16
 206 576 206 576 206 516 c 2,17,-1
 206 0 l 1,18,-1
 80 0 l 1,19,-1
 80 730 l 1,20,-1
 206 730 l 1,21,-1
 206 690 l 1,22,23
 225 747 225 747 287 747 c 0,24,25
 345 747 345 747 368 732.5 c 128,-1,26
 391 718 391 718 410 677 c 1,27,28
 437 747 437 747 518 747 c 0,29,30
 665 747 665 747 665 516 c 2,31,-1
 665 0 l 1,0,-1
EndSplineSet
EndChar
StartChar: n
Encoding: 110 110 71
Width: 294
Flags: W
LayerCount: 2
Fore
SplineSet
254 0 m 1,0,-1
 180 0 l 1,1,-1
 180 293 l 2,2,3
 180 329 180 329 174.5 344.5 c 128,-1,4
 169 360 169 360 150 360 c 0,5,6
 121 360 121 360 121 293 c 2,7,-1
 121 0 l 1,8,-1
 47 0 l 1,9,-1
 47 426 l 1,10,-1
 121 426 l 1,11,-1
 121 408 l 1,12,13
 131 425 131 425 147 432 c 128,-1,14
 163 439 163 439 174 438 c 1,15,-1
 184 436 l 1,16,17
 224 432 224 432 239 383 c 128,-1,18
 254 334 254 334 254 217 c 2,19,-1
 254 0 l 1,0,-1
EndSplineSet
EndChar
StartChar: o
Encoding: 111 111 72
Width: 274
Flags: W
LayerCount: 2
Fore
SplineSet
244 215 m 0,0,1
 244 120 244 120 219.5 56 c 128,-1,2
 195 -8 195 -8 139 -8 c 0,3,4
 29 -8 29 -8 29 213 c 0,5,6
 29 265 29 265 32.5 299.5 c 128,-1,7
 36 334 36 334 46.5 368 c 128,-1,8
 57 402 57 402 80 419 c 128,-1,9
 103 436 103 436 139 436 c 0,10,11
 171 436 171 436 192.5 419 c 128,-1,12
 214 402 214 402 225 370 c 128,-1,13
 236 338 236 338 240 301.5 c 128,-1,14
 244 265 244 265 244 215 c 0,0,1
170 215 m 0,15,16
 170 218 170 218 170.5 231.5 c 128,-1,17
 171 245 171 245 171 256 c 128,-1,18
 171 267 171 267 170.5 283 c 128,-1,19
 170 299 170 299 168 311 c 128,-1,20
 166 323 166 323 162.5 334.5 c 128,-1,21
 159 346 159 346 153 352 c 128,-1,22
 147 358 147 358 139 358 c 0,23,24
 130 358 130 358 123 352 c 128,-1,25
 116 346 116 346 112.5 334.5 c 128,-1,26
 109 323 109 323 106.5 311 c 128,-1,27
 104 299 104 299 103.5 283 c 128,-1,28
 103 267 103 267 103 256 c 128,-1,29
 103 245 103 245 103.5 231.5 c 128,-1,30
 104 218 104 218 104 215 c 0,31,32
 104 68 104 68 139 68 c 1,33,34
 170 70 170 70 170 215 c 0,15,16
EndSplineSet
EndChar
StartChar: p
Encoding: 112 112 73
Width: 290
Flags: W
LayerCount: 2
Fore
SplineSet
262 207 m 0,0,1
 262 205 262 205 262 201 c 0,2,3
 263 -12 263 -12 166 -12 c 0,4,5
 138 -12 138 -12 121 10 c 1,6,-1
 121 -115 l 1,7,-1
 47 -166 l 1,8,-1
 47 426 l 1,9,-1
 119 426 l 1,10,-1
 119 410 l 1,11,12
 136 436 136 436 164 436 c 0,13,14
 187 436 187 436 204 428 c 128,-1,15
 221 420 221 420 231.5 402.5 c 128,-1,16
 242 385 242 385 248.5 366.5 c 128,-1,17
 255 348 255 348 257.5 318.5 c 128,-1,18
 260 289 260 289 261 266 c 128,-1,19
 262 243 262 243 262 207 c 0,0,1
188 207 m 0,20,21
 188 289 188 289 181.5 323.5 c 128,-1,22
 175 358 175 358 152 358 c 0,23,24
 138 358 138 358 130.5 347.5 c 128,-1,25
 123 337 123 337 122 327.5 c 128,-1,26
 121 318 121 318 121 301 c 2,27,-1
 121 121 l 2,28,29
 121 68 121 68 152 68 c 0,30,31
 174 68 174 68 181 96 c 128,-1,32
 188 124 188 124 188 207 c 0,20,21
EndSplineSet
EndChar
StartChar: q
Encoding: 113 113 74
Width: 496
VWidth: 1754
Flags: W
LayerCount: 2
Fore
SplineSet
416 -197 m 1,0,-1
 289 -281 l 1,1,-1
 289 17 l 1,2,3
 260 -21 260 -21 212 -21 c 0,4,5
 173 -21 173 -21 143 -3 c 128,-1,6
 113 15 113 15 96 51 c 128,-1,7
 79 87 79 87 68.5 120.5 c 128,-1,8
 58 154 58 154 54 204 c 128,-1,9
 50 254 50 254 49 278.5 c 128,-1,10
 48 303 48 303 48 344 c 0,11,12
 48 351 48 351 48 355 c 0,13,14
 48 417 48 417 49.5 456 c 128,-1,15
 51 495 51 495 55.5 545.5 c 128,-1,16
 60 596 60 596 71 627.5 c 128,-1,17
 82 659 82 659 100 689 c 128,-1,18
 118 719 118 719 147 733 c 128,-1,19
 176 747 176 747 216 747 c 0,20,21
 264 747 264 747 293 702 c 1,22,-1
 293 730 l 1,23,-1
 416 730 l 1,24,-1
 416 -197 l 1,0,-1
289 207 m 2,25,-1
 289 516 l 2,26,27
 289 614 289 614 240 613 c 0,28,29
 199 613 199 613 187.5 555 c 128,-1,30
 176 497 176 497 176 355 c 0,31,32
 176 211 176 211 188 163.5 c 128,-1,33
 200 116 200 116 240 116 c 0,34,35
 289 116 289 116 289 207 c 2,25,-1
EndSplineSet
EndChar
StartChar: r
Encoding: 114 114 75
Width: 210
Flags: W
LayerCount: 2
Fore
SplineSet
201 408 m 1,0,-1
 193 332 l 1,1,2
 176 356 176 356 162 356 c 0,3,4
 121 356 121 356 121 272 c 2,5,-1
 121 0 l 1,6,-1
 47 0 l 1,7,-1
 47 426 l 1,8,-1
 121 426 l 1,9,-1
 121 406 l 1,10,11
 139 436 139 436 160 436 c 0,12,13
 187 436 187 436 201 408 c 1,0,-1
EndSplineSet
EndChar
StartChar: s
Encoding: 115 115 76
Width: 374
VWidth: 1754
Flags: W
LayerCount: 2
Fore
SplineSet
354 194 m 0,0,1
 354 113 354 113 314 57 c 0,2,3
 263 -13 263 -13 174 -14 c 0,4,5
 82 -14 82 -14 30 63 c 1,6,-1
 66 211 l 1,7,8
 114 105 114 105 167 104 c 0,9,10
 230 104 230 104 230 197 c 0,11,12
 230 224 230 224 208.5 269.5 c 128,-1,13
 187 315 187 315 143 351 c 0,14,15
 83 401 83 401 56.5 446.5 c 128,-1,16
 30 492 30 492 30 565 c 0,17,18
 30 635 30 635 66 687 c 0,19,20
 107 747 107 747 186 747 c 0,21,22
 258 747 258 747 330 659 c 1,23,-1
 290 526 l 1,24,25
 254 588 254 588 234.5 610 c 128,-1,26
 215 632 215 632 193 632 c 0,27,28
 176 632 176 632 164.5 612.5 c 128,-1,29
 153 593 153 593 153 569 c 0,30,31
 153 538 153 538 174 502 c 0,32,33
 184 487 184 487 263 408 c 1,34,35
 354 312 354 312 354 194 c 0,0,1
EndSplineSet
EndChar
StartChar: t
Encoding: 116 116 77
Width: 174
Flags: W
LayerCount: 2
Fore
SplineSet
174 90 m 1,0,-1
 166 20 l 1,1,2
 146 -6 146 -6 123 -6 c 0,3,4
 89 -6 89 -6 67 25 c 128,-1,5
 45 56 45 56 45 102 c 2,6,-1
 45 358 l 1,7,-1
 0 358 l 1,8,-1
 0 426 l 1,9,-1
 45 426 l 1,10,-1
 45 549 l 1,11,-1
 121 594 l 1,12,-1
 121 426 l 1,13,-1
 172 426 l 1,14,-1
 172 360 l 1,15,-1
 121 360 l 1,16,-1
 121 102 l 2,17,18
 121 87 121 87 127.5 77.5 c 128,-1,19
 134 68 134 68 145 68 c 0,20,21
 158 68 158 68 174 90 c 1,0,-1
EndSplineSet
EndChar
StartChar: u
Encoding: 117 117 78
Width: 294
Flags: W
LayerCount: 2
Fore
SplineSet
248 426 m 1,0,-1
 248 0 l 1,1,-1
 174 0 l 1,2,-1
 174 18 l 1,3,4
 164 1 164 1 148.5 -6 c 128,-1,5
 133 -13 133 -13 123 -12 c 2,6,-1
 113 -10 l 1,7,8
 71 -6 71 -6 56 43 c 128,-1,9
 41 92 41 92 41 209 c 2,10,-1
 41 426 l 1,11,-1
 115 426 l 1,12,-1
 115 133 l 2,13,14
 115 97 115 97 120.5 81.5 c 128,-1,15
 126 66 126 66 145 66 c 0,16,17
 159 66 159 66 165.5 77.5 c 128,-1,18
 172 89 172 89 173 100 c 128,-1,19
 174 111 174 111 174 133 c 2,20,-1
 174 426 l 1,21,-1
 248 426 l 1,0,-1
EndSplineSet
EndChar
StartChar: v
Encoding: 118 118 79
Width: 469
VWidth: 1754
Flags: W
LayerCount: 2
Fore
SplineSet
452 730 m 1,0,-1
 298 0 l 1,1,-1
 168 0 l 1,2,-1
 17 730 l 1,3,-1
 147 730 l 1,4,-1
 231 231 l 1,5,-1
 325 730 l 1,6,-1
 452 730 l 1,0,-1
EndSplineSet
EndChar
StartChar: w
Encoding: 119 119 80
Width: 348
Flags: W
LayerCount: 2
Fore
SplineSet
336 426 m 1,0,-1
 268 0 l 1,1,-1
 213 0 l 1,2,-1
 174 242 l 1,3,-1
 131 0 l 1,4,-1
 78 0 l 1,5,-1
 12 426 l 1,6,-1
 74 426 l 1,7,-1
 106 162 l 1,8,-1
 141 426 l 1,9,-1
 205 426 l 1,10,-1
 242 160 l 1,11,-1
 276 426 l 1,12,-1
 336 426 l 1,0,-1
EndSplineSet
EndChar
StartChar: x
Encoding: 120 120 81
Width: 268
Flags: W
LayerCount: 2
Fore
SplineSet
268 0 m 1,0,-1
 199 0 l 1,1,-1
 133 152 l 1,2,-1
 68 0 l 1,3,-1
 0 0 l 1,4,-1
 98 242 l 1,5,-1
 18 426 l 1,6,-1
 84 426 l 1,7,-1
 133 315 l 1,8,-1
 176 426 l 1,9,-1
 244 426 l 1,10,-1
 164 242 l 1,11,-1
 268 0 l 1,0,-1
EndSplineSet
EndChar
StartChar: y
Encoding: 121 121 82
Width: 500
VWidth: 1754
Flags: W
LayerCount: 2
Fore
SplineSet
480 733 m 1,0,-1
 256 -277 l 1,1,-1
 143 -277 l 1,2,-1
 199 0 l 1,3,-1
 20 733 l 1,4,-1
 133 733 l 1,5,-1
 256 257 l 1,6,-1
 360 733 l 1,7,-1
 480 733 l 1,0,-1
EndSplineSet
EndChar
StartChar: z
Encoding: 122 122 83
Width: 419
VWidth: 1754
Flags: W
LayerCount: 2
Fore
SplineSet
392 629 m 1,0,-1
 175 116 l 1,1,-1
 389 116 l 1,2,-1
 389 0 l 1,3,-1
 31 0 l 1,4,-1
 31 98 l 1,5,-1
 257 613 l 1,6,-1
 50 613 l 1,7,-1
 50 730 l 1,8,-1
 392 730 l 1,9,-1
 392 629 l 1,0,-1
EndSplineSet
EndChar
StartChar: cent
Encoding: 162 162 84
Width: 598
VWidth: 1754
Flags: W
LayerCount: 2
Fore
SplineSet
518 291 m 1,0,1
 515 212 515 212 480.5 156.5 c 128,-1,2
 446 101 446 101 384 94 c 1,3,-1
 384 0 l 1,4,-1
 251 0 l 1,5,-1
 251 94 l 1,6,7
 181 106 181 106 143 164 c 1,8,9
 80 255 80 255 80 505 c 0,10,11
 80 663 80 663 112 783 c 1,12,13
 148 899 148 899 251 916 c 1,14,-1
 251 1014 l 1,15,-1
 384 1014 l 1,16,-1
 384 916 l 1,17,18
 434 911 434 911 472.5 867.5 c 128,-1,19
 511 824 511 824 518 761 c 1,20,-1
 384 761 l 1,21,22
 382 787 382 787 364.5 802 c 128,-1,23
 347 817 347 817 321 817 c 0,24,25
 302 817 302 817 286 809.5 c 128,-1,26
 270 802 270 802 258.5 786.5 c 128,-1,27
 247 771 247 771 239.5 755.5 c 128,-1,28
 232 740 232 740 227 712.5 c 128,-1,29
 222 685 222 685 218.5 669 c 128,-1,30
 215 653 215 653 214 621 c 128,-1,31
 213 589 213 589 213 577 c 128,-1,32
 213 565 213 565 213 536 c 128,-1,33
 213 507 213 507 213 505 c 0,34,35
 213 339 213 339 236 268 c 128,-1,36
 259 197 259 197 314 197 c 0,37,38
 352 197 352 197 368 219.5 c 128,-1,39
 384 242 384 242 384 291 c 1,40,-1
 518 291 l 1,0,1
EndSplineSet
EndChar
StartChar: dieresis
Encoding: 168 168 125
Width: 277
Flags: W
LayerCount: 2
Fore
SplineSet
123 557 m 0,0,1
 123 542 123 542 112 531 c 128,-1,2
 101 520 101 520 84 520 c 0,3,4
 69 520 69 520 58 531 c 128,-1,5
 47 542 47 542 47 559 c 0,6,7
 47 574 47 574 58 585 c 128,-1,8
 69 596 69 596 86 596 c 0,9,10
 101 596 101 596 112 585 c 128,-1,11
 123 574 123 574 123 557 c 0,0,1
230 557 m 0,12,13
 230 542 230 542 219 531 c 128,-1,14
 208 520 208 520 191 520 c 0,15,16
 176 520 176 520 165 531 c 128,-1,17
 154 542 154 542 154 559 c 0,18,19
 154 574 154 574 165 585 c 128,-1,20
 176 596 176 596 193 596 c 0,21,22
 208 596 208 596 219 585 c 128,-1,23
 230 574 230 574 230 557 c 0,12,13
EndSplineSet
EndChar
StartChar: acute
Encoding: 180 180 126
Width: 151
Flags: W
LayerCount: 2
Fore
SplineSet
74 584 m 1,0,-1
 151 584 l 1,1,-1
 93 480 l 1,2,-1
 50 480 l 1,3,-1
 74 584 l 1,0,-1
EndSplineSet
EndChar
StartChar: cedilla
Encoding: 184 184 181
Width: 0
Flags: W
LayerCount: 2
Fore
SplineSet
118 6 m 1,0,-1
 157 6 l 1,1,-1
 149 -23 l 1,2,3
 181 -5 181 -5 199 -39 c 0,4,5
 218 -76 218 -76 187 -105 c 1,6,7
 173 -121 173 -121 152 -121 c 0,8,9
 105 -120 105 -120 60 -101 c 1,10,-1
 74 -68 l 1,11,12
 103 -86 103 -86 136 -85 c 0,13,14
 159 -84 159 -84 165 -74 c 0,15,16
 170 -66 170 -66 162 -56 c 0,17,18
 152 -43 152 -43 128 -61 c 1,19,-1
 104 -43 l 1,20,-1
 118 6 l 1,0,-1
EndSplineSet
EndChar
StartChar: Ccedilla
Encoding: 199 199 132
Width: 344
Flags: W
LayerCount: 2
Fore
SplineSet
153 -7 m 1,0,1
 93 6 93 6 72 68 c 0,2,3
 47 145 47 145 47 291 c 0,4,5
 47 388 47 388 61 467 c 0,6,7
 73 534 73 534 101 563 c 128,-1,8
 129 592 129 592 182 592 c 0,9,10
 232 592 232 592 262.5 562.5 c 128,-1,11
 293 533 293 533 297 479 c 1,12,-1
 221 479 l 1,13,14
 218 516 218 516 184 516 c 0,15,16
 147 516 147 516 135 459 c 0,17,18
 123 403 123 403 123 291 c 0,19,20
 123 184 123 184 135 125 c 128,-1,21
 147 66 147 66 182 66 c 0,22,23
 221 66 221 66 221 137 c 1,24,-1
 297 137 l 1,25,26
 297 86 297 86 289 59 c 1,27,28
 282 27 282 27 254 9 c 0,29,30
 227 -9 227 -9 192 -10 c 1,31,-1
 188 -23 l 1,32,33
 220 -5 220 -5 238 -39 c 0,34,35
 257 -76 257 -76 226 -105 c 1,36,37
 212 -121 212 -121 191 -121 c 0,38,39
 144 -120 144 -120 99 -101 c 1,40,-1
 113 -68 l 1,41,42
 142 -86 142 -86 175 -85 c 0,43,44
 198 -84 198 -84 204 -74 c 0,45,46
 209 -66 209 -66 201 -56 c 0,47,48
 191 -43 191 -43 167 -61 c 1,49,-1
 143 -43 l 1,50,-1
 153 -7 l 1,0,1
EndSplineSet
EndChar
StartChar: ccedilla
Encoding: 231 231 157
Width: 419
VWidth: 1754
Flags: W
LayerCount: 2
Fore
SplineSet
195 -9 m 1,0,1
 49 27 49 27 50 351 c 0,2,3
 50 421 50 421 52.5 471.5 c 128,-1,4
 55 522 55 522 66 578 c 128,-1,5
 77 634 77 634 96.5 668 c 128,-1,6
 116 702 116 702 151.5 724.5 c 128,-1,7
 187 747 187 747 235 747 c 0,8,9
 370 747 370 747 404 558 c 1,10,-1
 288 502 l 1,11,12
 281 610 281 610 235 610 c 0,13,14
 220 610 220 610 208.5 599 c 128,-1,15
 197 588 197 588 191 567 c 128,-1,16
 185 546 185 546 180.5 525 c 128,-1,17
 176 504 176 504 175.5 475.5 c 128,-1,18
 175 447 175 447 174 428 c 128,-1,19
 173 409 173 409 174 383.5 c 128,-1,20
 175 358 175 358 175 355 c 0,21,22
 175 105 175 105 238 104 c 1,23,24
 274 109 274 109 288 221 c 1,25,-1
 404 178 l 1,26,27
 368 7 368 7 260 -12 c 1,28,-1
 254 -39 l 1,29,30
 309 -8 309 -8 339 -67 c 0,31,32
 372 -130 372 -130 319 -180 c 1,33,34
 295 -207 295 -207 259 -207 c 0,35,36
 178 -205 178 -205 101 -173 c 1,37,-1
 125 -116 l 1,38,39
 175 -147 175 -147 231 -146 c 0,40,41
 270 -144 270 -144 281 -127 c 0,42,43
 290 -113 290 -113 276 -96 c 0,44,45
 259 -74 259 -74 218 -104 c 1,46,-1
 176 -74 l 1,47,-1
 195 -9 l 1,0,1
EndSplineSet
EndChar
StartChar: dotlessi
Encoding: 305 305 178
Width: 286
VWidth: 1754
Flags: W
LayerCount: 2
Fore
SplineSet
206 0 m 1,0,-1
 80 0 l 1,1,-1
 80 730 l 1,2,-1
 206 730 l 1,3,-1
 206 0 l 1,0,-1
EndSplineSet
EndChar
StartChar: circumflex
Encoding: 710 710 179
Width: 457
VWidth: 1754
Flags: W
LayerCount: 2
Fore
SplineSet
296 1000 m 1,0,-1
 372 822 l 1,1,-1
 298 822 l 1,2,-1
 230 886 l 1,3,-1
 159 822 l 1,4,-1
 86 822 l 1,5,-1
 161 1000 l 1,6,-1
 296 1000 l 1,0,-1
EndSplineSet
EndChar
StartChar: tilde
Encoding: 732 732 180
Width: 601
VWidth: 1754
Flags: W
LayerCount: 2
Fore
SplineSet
123 846 m 1,0,1
 123 935 123 935 163 987 c 1,2,3
 190 1030 190 1030 228 1029 c 0,4,5
 259 1029 259 1029 301 981 c 0,6,7
 327 950 327 950 346 951 c 0,8,9
 379 951 379 951 384 1028 c 1,10,-1
 444 1028 l 1,11,12
 444 949 444 949 416 899 c 0,13,14
 385 842 385 842 334 843 c 0,15,16
 300 843 300 843 260 892 c 0,17,18
 236 923 236 923 223 923 c 0,19,20
 187 923 187 923 183 846 c 1,21,-1
 123 846 l 1,0,1
EndSplineSet
EndChar
StartChar: fraction
Encoding: 8260 8260 105
Width: 388
Flags: W
LayerCount: 2
Fore
SplineSet
388 585 m 1,0,-1
 51 0 l 1,1,-1
 0 0 l 1,2,-1
 337 585 l 1,3,-1
 388 585 l 1,0,-1
EndSplineSet
EndChar
StartChar: uni2070
Encoding: 8304 8304 85
Width: 412
VWidth: 1754
Flags: W
LayerCount: 2
Fore
SplineSet
361 668 m 256,0,1
 361 661 361 661 361 632 c 128,-1,2
 361 603 361 603 361 589.5 c 128,-1,3
 361 576 361 576 358.5 546 c 128,-1,4
 356 516 356 516 353.5 499.5 c 128,-1,5
 351 483 351 483 345 455.5 c 128,-1,6
 339 428 339 428 331.5 412.5 c 128,-1,7
 324 397 324 397 312.5 378.5 c 128,-1,8
 301 360 301 360 286.5 349.5 c 128,-1,9
 272 339 272 339 251.5 332 c 128,-1,10
 231 325 231 325 207 325 c 0,11,12
 174 325 174 325 149.5 338 c 128,-1,13
 125 351 125 351 108 368 c 128,-1,14
 91 385 91 385 80 417 c 128,-1,15
 69 449 69 449 63 473 c 128,-1,16
 57 497 57 497 54 537 c 128,-1,17
 51 577 51 577 51 596 c 128,-1,18
 51 615 51 615 51 651 c 0,19,20
 51 663 51 663 51 668 c 0,21,22
 51 709 51 709 52 735.5 c 128,-1,23
 53 762 53 762 57.5 808.5 c 128,-1,24
 62 855 62 855 72 885.5 c 128,-1,25
 82 916 82 916 98.5 948 c 128,-1,26
 115 980 115 980 143 996 c 128,-1,27
 171 1012 171 1012 207 1012 c 0,28,29
 240 1012 240 1012 264.5 999.5 c 128,-1,30
 289 987 289 987 305.5 969.5 c 128,-1,31
 322 952 322 952 333 920.5 c 128,-1,32
 344 889 344 889 350 866 c 128,-1,33
 356 843 356 843 358.5 802.5 c 128,-1,34
 361 762 361 762 361 743.5 c 128,-1,35
 361 725 361 725 361 685 c 0,36,37
 361 675 361 675 361 668 c 256,0,1
274 668 m 2,38,-1
 274 697 l 1,39,40
 276 724 276 724 275 740.5 c 128,-1,41
 274 757 274 757 272.5 788 c 128,-1,42
 271 819 271 819 266.5 839.5 c 128,-1,43
 262 860 262 860 255 881.5 c 128,-1,44
 248 903 248 903 236 914 c 128,-1,45
 224 925 224 925 207 925 c 0,46,47
 135 923 135 923 139 682 c 0,48,49
 139 672 139 672 139 668 c 0,50,51
 139 522 139 522 156 468 c 0,52,53
 173 411 173 411 207 411 c 0,54,55
 221 411 221 411 230.5 418 c 128,-1,56
 240 425 240 425 247 438.5 c 128,-1,57
 254 452 254 452 259 466.5 c 128,-1,58
 264 481 264 481 266.5 502.5 c 128,-1,59
 269 524 269 524 270.5 541 c 128,-1,60
 272 558 272 558 273 580.5 c 128,-1,61
 274 603 274 603 274 616 c 128,-1,62
 274 629 274 629 274 647.5 c 128,-1,63
 274 666 274 666 274 668 c 2,38,-1
EndSplineSet
EndChar
StartChar: uni2071
Encoding: 8305 8305 86
Width: 119
Flags: W
LayerCount: 2
Fore
SplineSet
100 195 m 1,0,-1
 50 195 l 1,1,-1
 50 530 l 1,2,-1
 19 530 l 1,3,-1
 19 560 l 1,4,5
 44 564 44 564 64 584 c 1,6,-1
 100 584 l 1,7,-1
 100 195 l 1,0,-1
EndSplineSet
EndChar
StartChar: uni2072
Encoding: 8306 8306 87
Width: 206
Flags: W
LayerCount: 2
Fore
SplineSet
187 501 m 0,0,1
 187 478 187 478 178.5 459 c 128,-1,2
 170 440 170 440 144 401 c 1,3,4
 103 336 103 336 86 293 c 1,5,6
 77 273 77 273 75 246 c 1,7,-1
 180 246 l 1,8,-1
 180 195 l 1,9,-1
 19 195 l 1,10,11
 20 266 20 266 38 316 c 128,-1,12
 56 366 56 366 102 428 c 0,13,14
 136 474 136 474 136 501 c 0,15,16
 136 542 136 542 104 542 c 0,17,18
 89 542 89 542 79.5 533 c 128,-1,19
 70 524 70 524 69 509 c 1,20,-1
 19 509 l 1,21,22
 21 545 21 545 44.5 568 c 128,-1,23
 68 591 68 591 104 591 c 0,24,25
 141 591 141 591 164 566 c 128,-1,26
 187 541 187 541 187 501 c 0,0,1
EndSplineSet
EndChar
StartChar: uni2073
Encoding: 8307 8307 88
Width: 327
VWidth: 1754
Flags: W
LayerCount: 2
Fore
SplineSet
307 521 m 0,0,1
 307 418 307 418 265 367 c 0,2,3
 227 322 227 322 155.5 322 c 128,-1,4
 84 322 84 322 43 392 c 1,5,6
 21 425 21 425 21 459 c 1,7,-1
 108 459 l 1,8,9
 110 437 110 437 123.5 423 c 128,-1,10
 137 409 137 409 159 409 c 0,11,12
 192 409 192 409 206.5 435 c 128,-1,13
 221 461 221 461 221 521 c 0,14,15
 221 600 221 600 205.5 627 c 128,-1,16
 190 654 190 654 147 654 c 2,17,-1
 118 654 l 1,18,-1
 118 740 l 1,19,-1
 140 740 l 2,20,21
 176 740 176 740 190 762.5 c 128,-1,22
 204 785 204 785 204 843 c 0,23,24
 204 925 204 925 152 925 c 0,25,26
 111 925 111 925 108 880 c 1,27,-1
 21 880 l 1,28,29
 24 942 24 942 59 977 c 128,-1,30
 94 1012 94 1012 152 1012 c 0,31,32
 289 1012 289 1012 289 843 c 0,33,34
 289 761 289 761 255 699 c 1,35,36
 279 673 279 673 288 658 c 1,37,38
 307 613 307 613 307 521 c 0,0,1
EndSplineSet
EndChar
StartChar: uni2074
Encoding: 8308 8308 89
Width: 243
Flags: W
LayerCount: 2
Fore
SplineSet
211 292 m 1,0,-1
 191 292 l 1,1,-1
 191 195 l 1,2,-1
 142 195 l 1,3,-1
 142 292 l 1,4,-1
 19 292 l 1,5,-1
 19 344 l 1,6,-1
 138 584 l 1,7,-1
 191 584 l 1,8,-1
 191 338 l 1,9,-1
 211 338 l 1,10,-1
 211 292 l 1,0,-1
142 338 m 1,11,-1
 142 490 l 1,12,-1
 68 338 l 1,13,-1
 142 338 l 1,11,-1
EndSplineSet
EndChar
StartChar: uni2075
Encoding: 8309 8309 90
Width: 229
Flags: W
LayerCount: 2
Fore
SplineSet
198 349 m 0,0,1
 198 290 198 290 173 242 c 0,2,3
 144 188 144 188 90 188 c 0,4,5
 59 188 59 188 31 206 c 1,6,-1
 57 250 l 1,7,8
 75 239 75 239 90 239 c 0,9,10
 118 239 118 239 131 276 c 1,11,12
 147 314 147 314 147 358 c 0,13,14
 147 380 147 380 138.5 393 c 128,-1,15
 130 406 130 406 114 406 c 0,16,17
 101 406 101 406 87 390 c 1,18,-1
 36 396 l 1,19,-1
 44 584 l 1,20,-1
 187 584 l 1,21,-1
 187 534 l 1,22,-1
 91 534 l 1,23,-1
 90 454 l 1,24,25
 111 457 111 457 116 457 c 0,26,27
 158 457 158 457 180 422 c 1,28,29
 198 391 198 391 198 349 c 0,0,1
EndSplineSet
EndChar
StartChar: uni2076
Encoding: 8310 8310 91
Width: 327
VWidth: 1754
Flags: W
LayerCount: 2
Fore
SplineSet
307 528 m 0,0,1
 307 401 307 401 252 355 c 1,2,3
 218 322 218 322 161 322 c 0,4,5
 92 322 92 322 56.5 373.5 c 128,-1,6
 21 425 21 425 21 521 c 0,7,8
 21 822 21 822 259 1012 c 1,9,-1
 307 939 l 1,10,11
 199 853 199 853 147 726 c 1,12,13
 224 750 224 750 269 680 c 0,14,15
 307 620 307 620 307 528 c 0,0,1
221 540 m 0,16,17
 221 643 221 643 163 642 c 0,18,19
 134 642 134 642 121 615.5 c 128,-1,20
 108 589 108 589 108 528 c 0,21,22
 108 453 108 453 127 430 c 0,23,24
 142 409 142 409 163 409 c 0,25,26
 190 409 190 409 206 435 c 1,27,28
 221 470 221 470 221 540 c 0,16,17
EndSplineSet
EndChar
StartChar: uni2077
Encoding: 8311 8311 92
Width: 206
Flags: W
LayerCount: 2
Fore
SplineSet
187 534 m 1,0,1
 148 455 148 455 131.5 379.5 c 128,-1,2
 115 304 115 304 112 195 c 1,3,-1
 61 195 l 1,4,5
 67 400 67 400 136 534 c 1,6,-1
 19 534 l 1,7,-1
 19 584 l 1,8,-1
 187 584 l 1,9,-1
 187 534 l 1,0,1
EndSplineSet
EndChar
StartChar: uni2078
Encoding: 8312 8312 93
Width: 206
Flags: W
LayerCount: 2
Fore
SplineSet
187 308 m 256,0,1
 187 249 187 249 162 216 c 0,2,3
 142 188 142 188 104 188 c 0,4,5
 54 188 54 188 35 230 c 0,6,7
 19 266 19 266 19 308 c 0,8,9
 19 367 19 367 49 405 c 1,10,11
 26 432 26 432 26 480 c 0,12,13
 26 530 26 530 47 560.5 c 128,-1,14
 68 591 68 591 102 591 c 0,15,16
 138 591 138 591 159 561 c 128,-1,17
 180 531 180 531 180 480.5 c 128,-1,18
 180 430 180 430 157 405 c 1,19,20
 187 367 187 367 187 308 c 256,0,1
130 478 m 0,21,22
 130 540 130 540 104 540 c 0,23,24
 76 540 76 540 76 478 c 0,25,26
 76 426 76 426 104 426 c 0,27,28
 130 426 130 426 130 478 c 0,21,22
136 308 m 0,29,30
 136 375 136 375 104 375 c 0,31,32
 69 375 69 375 69 308 c 0,33,34
 69 239 69 239 104 239 c 0,35,36
 136 239 136 239 136 308 c 0,29,30
EndSplineSet
EndChar
StartChar: uni2079
Encoding: 8313 8313 94
Width: 229
Flags: W
LayerCount: 2
Fore
SplineSet
198 475 m 0,0,1
 198 302 198 302 58 188 c 1,2,-1
 31 230 l 1,3,4
 94 283 94 283 124 355 c 1,5,6
 121 354 121 354 114 354 c 0,7,8
 76 354 76 354 52 384 c 1,9,10
 31 412 31 412 31 471 c 0,11,12
 31 544 31 544 61 572 c 1,13,14
 86 591 86 591 116 591 c 0,15,16
 156 591 156 591 177 561.5 c 128,-1,17
 198 532 198 532 198 475 c 0,0,1
147 471 m 0,18,19
 147 518 147 518 136 528 c 1,20,21
 128 540 128 540 114 540 c 0,22,23
 97 540 97 540 89.5 522.5 c 128,-1,24
 82 505 82 505 82 466 c 0,25,26
 82 404 82 404 114 404 c 0,27,28
 132 404 132 404 139.5 420 c 128,-1,29
 147 436 147 436 147 471 c 0,18,19
EndSplineSet
EndChar
StartChar: uni2080
Encoding: 8320 8320 95
Width: 241
Flags: W
LayerCount: 2
Fore
SplineSet
211 195 m 256,0,1
 211 191 211 191 211 174 c 128,-1,2
 211 157 211 157 211 149 c 128,-1,3
 211 141 211 141 209.5 123.5 c 128,-1,4
 208 106 208 106 206.5 96.5 c 128,-1,5
 205 87 205 87 201.5 71 c 128,-1,6
 198 55 198 55 193.5 46 c 128,-1,7
 189 37 189 37 182.5 26 c 128,-1,8
 176 15 176 15 167.5 9 c 128,-1,9
 159 3 159 3 147 -1 c 128,-1,10
 135 -5 135 -5 121 -5 c 0,11,12
 102 -5 102 -5 87.5 2.5 c 128,-1,13
 73 10 73 10 63 20 c 128,-1,14
 53 30 53 30 46.5 48.5 c 128,-1,15
 40 67 40 67 36.5 81 c 128,-1,16
 33 95 33 95 31.5 118.5 c 128,-1,17
 30 142 30 142 30 153 c 128,-1,18
 30 164 30 164 30 185 c 0,19,20
 30 192 30 192 30 195 c 0,21,22
 30 219 30 219 30.5 234.5 c 128,-1,23
 31 250 31 250 33.5 277 c 128,-1,24
 36 304 36 304 42 322 c 128,-1,25
 48 340 48 340 57.5 358.5 c 128,-1,26
 67 377 67 377 83.5 386.5 c 128,-1,27
 100 396 100 396 121 396 c 0,28,29
 140 396 140 396 154.5 388.5 c 128,-1,30
 169 381 169 381 178.5 371 c 128,-1,31
 188 361 188 361 194.5 342.5 c 128,-1,32
 201 324 201 324 204.5 310.5 c 128,-1,33
 208 297 208 297 209.5 273.5 c 128,-1,34
 211 250 211 250 211 239 c 128,-1,35
 211 228 211 228 211 205 c 0,36,37
 211 199 211 199 211 195 c 256,0,1
160 195 m 2,38,-1
 160 212 l 1,39,40
 161 228 161 228 160.5 237.5 c 128,-1,41
 160 247 160 247 159 265 c 128,-1,42
 158 283 158 283 155.5 295 c 128,-1,43
 153 307 153 307 149 319.5 c 128,-1,44
 145 332 145 332 138 338.5 c 128,-1,45
 131 345 131 345 121 345 c 0,46,47
 79 344 79 344 81 203 c 0,48,49
 81 197 81 197 81 195 c 0,50,51
 81 110 81 110 91 78 c 0,52,53
 101 45 101 45 121 45 c 0,54,55
 129 45 129 45 134.5 49 c 128,-1,56
 140 53 140 53 144 61 c 128,-1,57
 148 69 148 69 151 77.5 c 128,-1,58
 154 86 154 86 155.5 98.5 c 128,-1,59
 157 111 157 111 158 121 c 128,-1,60
 159 131 159 131 159.5 144 c 128,-1,61
 160 157 160 157 160 164.5 c 128,-1,62
 160 172 160 172 160 183 c 128,-1,63
 160 194 160 194 160 195 c 2,38,-1
EndSplineSet
EndChar
StartChar: uni2081
Encoding: 8321 8321 96
Width: 119
Flags: W
LayerCount: 2
Fore
SplineSet
100 0 m 1,0,-1
 50 0 l 1,1,-1
 50 335 l 1,2,-1
 19 335 l 1,3,-1
 19 365 l 1,4,5
 44 369 44 369 64 389 c 1,6,-1
 100 389 l 1,7,-1
 100 0 l 1,0,-1
EndSplineSet
EndChar
StartChar: uni2082
Encoding: 8322 8322 97
Width: 352
VWidth: 1754
Flags: W
LayerCount: 2
Fore
SplineSet
320 524 m 0,0,1
 320 485 320 485 305.5 452.5 c 128,-1,2
 291 420 291 420 247 353 c 1,3,4
 177 242 177 242 147 168 c 1,5,6
 132 134 132 134 128 87 c 1,7,-1
 308 87 l 1,8,-1
 308 0 l 1,9,-1
 33 0 l 1,10,11
 35 122 35 122 65.5 207.5 c 128,-1,12
 96 293 96 293 175 399 c 0,13,14
 233 478 233 478 233 524 c 0,15,16
 233 594 233 594 178 594 c 0,17,18
 152 594 152 594 136 579 c 128,-1,19
 120 564 120 564 118 538 c 1,20,-1
 33 538 l 1,21,22
 36 600 36 600 76 639 c 128,-1,23
 116 678 116 678 178 678 c 0,24,25
 241 678 241 678 280.5 635.5 c 128,-1,26
 320 593 320 593 320 524 c 0,0,1
EndSplineSet
EndChar
StartChar: uni2083
Encoding: 8323 8323 98
Width: 191
Flags: W
LayerCount: 2
Fore
SplineSet
179 109 m 0,0,1
 179 49 179 49 155 19 c 0,2,3
 133 -7 133 -7 91 -7 c 128,-1,4
 49 -7 49 -7 25 34 c 1,5,6
 12 53 12 53 12 73 c 1,7,-1
 63 73 l 1,8,9
 64 60 64 60 72 52 c 128,-1,10
 80 44 80 44 93 44 c 0,11,12
 112 44 112 44 120.5 59 c 128,-1,13
 129 74 129 74 129 109 c 0,14,15
 129 155 129 155 120 171 c 128,-1,16
 111 187 111 187 86 187 c 2,17,-1
 69 187 l 1,18,-1
 69 237 l 1,19,-1
 82 237 l 2,20,21
 103 237 103 237 111 250 c 128,-1,22
 119 263 119 263 119 297 c 0,23,24
 119 345 119 345 89 345 c 0,25,26
 65 345 65 345 63 319 c 1,27,-1
 12 319 l 1,28,29
 14 355 14 355 34.5 375.5 c 128,-1,30
 55 396 55 396 89 396 c 0,31,32
 169 396 169 396 169 297 c 0,33,34
 169 249 169 249 149 213 c 1,35,36
 163 198 163 198 168 189 c 1,37,38
 179 163 179 163 179 109 c 0,0,1
EndSplineSet
EndChar
StartChar: uni2084
Encoding: 8324 8324 99
Width: 243
Flags: W
LayerCount: 2
Fore
SplineSet
211 97 m 1,0,-1
 191 97 l 1,1,-1
 191 0 l 1,2,-1
 142 0 l 1,3,-1
 142 97 l 1,4,-1
 19 97 l 1,5,-1
 19 149 l 1,6,-1
 138 389 l 1,7,-1
 191 389 l 1,8,-1
 191 143 l 1,9,-1
 211 143 l 1,10,-1
 211 97 l 1,0,-1
142 143 m 1,11,-1
 142 295 l 1,12,-1
 68 143 l 1,13,-1
 142 143 l 1,11,-1
EndSplineSet
EndChar
StartChar: uni2085
Encoding: 8325 8325 100
Width: 392
VWidth: 1754
Flags: W
LayerCount: 2
Fore
SplineSet
339 264 m 0,0,1
 339 163 339 163 296 81 c 0,2,3
 246 -11 246 -11 154 -12 c 0,4,5
 101 -12 101 -12 53 19 c 1,6,-1
 98 94 l 1,7,8
 129 75 129 75 154 75 c 0,9,10
 202 75 202 75 224 139 c 1,11,12
 251 204 251 204 252 279 c 0,13,14
 252 317 252 317 237.5 339 c 128,-1,15
 223 361 223 361 195 361 c 0,16,17
 173 361 173 361 149 334 c 1,18,-1
 62 344 l 1,19,-1
 75 666 l 1,20,-1
 320 666 l 1,21,-1
 320 581 l 1,22,-1
 156 581 l 1,23,-1
 154 444 l 1,24,25
 190 449 190 449 199 449 c 0,26,27
 271 449 271 449 308 389 c 1,28,29
 339 336 339 336 339 264 c 0,0,1
EndSplineSet
EndChar
StartChar: uni2086
Encoding: 8326 8326 101
Width: 191
Flags: W
LayerCount: 2
Fore
SplineSet
179 113 m 0,0,1
 179 39 179 39 147 12 c 1,2,3
 127 -7 127 -7 94 -7 c 0,4,5
 54 -7 54 -7 33 23 c 128,-1,6
 12 53 12 53 12 109 c 0,7,8
 12 285 12 285 151 396 c 1,9,-1
 179 353 l 1,10,11
 116 303 116 303 86 229 c 1,12,13
 131 243 131 243 157 202 c 0,14,15
 179 167 179 167 179 113 c 0,0,1
129 120 m 0,16,17
 129 180 129 180 95 180 c 0,18,19
 78 180 78 180 70.5 164.5 c 128,-1,20
 63 149 63 149 63 113 c 0,21,22
 63 69 63 69 74 56 c 0,23,24
 83 44 83 44 95 44 c 0,25,26
 111 44 111 44 120 59 c 1,27,28
 129 79 129 79 129 120 c 0,16,17
EndSplineSet
EndChar
StartChar: uni2087
Encoding: 8327 8327 102
Width: 206
Flags: W
LayerCount: 2
Fore
SplineSet
187 339 m 1,0,1
 148 260 148 260 131.5 184.5 c 128,-1,2
 115 109 115 109 112 0 c 1,3,-1
 61 0 l 1,4,5
 67 205 67 205 136 339 c 1,6,-1
 19 339 l 1,7,-1
 19 389 l 1,8,-1
 187 389 l 1,9,-1
 187 339 l 1,0,1
EndSplineSet
EndChar
StartChar: uni2088
Encoding: 8328 8328 103
Width: 352
VWidth: 1754
Flags: W
LayerCount: 2
Fore
SplineSet
320 194 m 256,0,1
 320 93 320 93 277 36 c 0,2,3
 243 -12 243 -12 178 -12 c 0,4,5
 92 -12 92 -12 60 60 c 0,6,7
 33 122 33 122 33 194 c 0,8,9
 33 295 33 295 84 360 c 1,10,11
 45 406 45 406 45 488 c 0,12,13
 45 574 45 574 80.5 626 c 128,-1,14
 116 678 116 678 175 678 c 0,15,16
 237 678 237 678 272.5 627 c 128,-1,17
 308 576 308 576 308 489.5 c 128,-1,18
 308 403 308 403 269 360 c 1,19,20
 320 295 320 295 320 194 c 256,0,1
223 485 m 0,21,22
 223 591 223 591 178 591 c 0,23,24
 130 591 130 591 130 485 c 0,25,26
 130 396 130 396 178 396 c 0,27,28
 223 396 223 396 223 485 c 0,21,22
233 194 m 0,29,30
 233 309 233 309 178 308 c 0,31,32
 118 308 118 308 118 194 c 0,33,34
 118 76 118 76 178 75 c 0,35,36
 233 76 233 76 233 194 c 0,29,30
EndSplineSet
EndChar
StartChar: uni2089
Encoding: 8329 8329 104
Width: 229
Flags: W
LayerCount: 2
Fore
SplineSet
198 280 m 0,0,1
 198 107 198 107 58 -7 c 1,2,-1
 31 35 l 1,3,4
 94 88 94 88 124 160 c 1,5,6
 121 159 121 159 114 159 c 0,7,8
 76 159 76 159 52 189 c 1,9,10
 31 217 31 217 31 276 c 0,11,12
 31 349 31 349 61 377 c 1,13,14
 86 396 86 396 116 396 c 0,15,16
 156 396 156 396 177 366.5 c 128,-1,17
 198 337 198 337 198 280 c 0,0,1
147 276 m 0,18,19
 147 323 147 323 136 333 c 1,20,21
 128 345 128 345 114 345 c 0,22,23
 97 345 97 345 89.5 327.5 c 128,-1,24
 82 310 82 310 82 271 c 0,25,26
 82 209 82 209 114 209 c 0,27,28
 132 209 132 209 139.5 225 c 128,-1,29
 147 241 147 241 147 276 c 0,18,19
EndSplineSet
EndChar
StartChar: .notdef
Encoding: 65536 -1 0
Width: 990
VWidth: 1754
Flags: W
LayerCount: 2
Fore
SplineSet
790 1002 m 1,0,-1
 790 0 l 1,1,-1
 200 0 l 1,2,-1
 200 1002 l 1,3,-1
 790 1002 l 1,0,-1
288 915 m 1,4,-1
 288 87 l 1,5,-1
 702 87 l 1,6,-1
 702 915 l 1,7,-1
 288 915 l 1,4,-1
EndSplineSet
EndChar
